<svg width="251" height="101" viewBox="0 0 251 101" fill="none" xmlns="http://www.w3.org/2000/svg">
<path d="M0 16C0 7.16344 7.16344 0 16 0H235C243.837 0 251 7.16344 251 16V65C251 73.8366 243.837 81 235 81H146.07C145.402 81 144.777 81.3342 144.406 81.8906L133.633 98.0507C132.85 99.2257 131.128 99.2407 130.324 98.0797L119.096 81.8616C118.723 81.322 118.108 81 117.452 81H16C7.16344 81 0 73.8366 0 65V16Z" fill="white"/>
<path d="M146.07 81C145.402 81 144.777 81.3342 144.406 81.8906L133.633 98.0508L133.557 98.1572C132.769 99.1908 131.208 99.2049 130.402 98.1855L130.324 98.0801L119.097 81.8613C118.77 81.3893 118.258 81.0837 117.696 81.0146L117.452 81V75C120.077 75 122.535 76.288 124.029 78.4463L131.906 89.8232L139.414 78.5625L139.556 78.3564C141.054 76.2545 143.479 75 146.07 75V81ZM235 75V81H146.07V75H235ZM245 65V16C245 10.4772 240.523 6 235 6H16C10.4772 6 6 10.4772 6 16V65C6 70.5229 10.4772 75 16 75V81L15.5869 80.9951C7.07854 80.7795 0.220502 73.9215 0.00488281 65.4131L0 65V16C6.443e-08 7.16344 7.16344 2.57703e-07 16 0H235L235.413 0.00488281C244.059 0.223981 251 7.30155 251 16V65L250.995 65.4131C250.779 73.9215 243.921 80.7795 235.413 80.9951L235 81V75C240.523 75 245 70.5229 245 65ZM117.452 75V81H16V75H117.452Z" fill="#59BFFF"/>
<path d="M193.067 32.4541L192.833 42.724H190.546L190.319 32.4541H193.067ZM191.689 47.1558C191.259 47.1558 190.889 47.0043 190.581 46.7013C190.278 46.3982 190.127 46.0289 190.127 45.5933C190.127 45.1672 190.278 44.8026 190.581 44.4996C190.889 44.1965 191.259 44.045 191.689 44.045C192.111 44.045 192.475 44.1965 192.783 44.4996C193.096 44.8026 193.252 45.1672 193.252 45.5933C193.252 45.8821 193.179 46.1449 193.032 46.3817C192.89 46.6184 192.7 46.8078 192.464 46.9498C192.232 47.0872 191.974 47.1558 191.689 47.1558Z" fill="#42516D"/>
<path d="M179.827 40.6075V46.9996H177.256V32.4541H179.77V37.9442H179.898C180.154 37.3286 180.549 36.8433 181.084 36.4882C181.624 36.1283 182.31 35.9484 183.144 35.9484C183.901 35.9484 184.562 36.107 185.125 36.4243C185.689 36.7415 186.124 37.2055 186.432 37.8163C186.744 38.4271 186.901 39.1729 186.901 40.0535V46.9996H184.33V40.4513C184.33 39.7174 184.14 39.1468 183.762 38.7396C183.387 38.3277 182.862 38.1217 182.185 38.1217C181.73 38.1217 181.323 38.2211 180.963 38.42C180.608 38.6141 180.329 38.8959 180.125 39.2652C179.926 39.6345 179.827 40.0819 179.827 40.6075Z" fill="#42516D"/>
<path d="M170.071 47.2134C168.982 47.2134 168.047 46.9743 167.266 46.4961C166.489 46.0179 165.89 45.3574 165.469 44.5146C165.052 43.667 164.844 42.6916 164.844 41.5884C164.844 40.4805 165.057 39.5027 165.483 38.6552C165.909 37.8029 166.51 37.14 167.287 36.6665C168.068 36.1883 168.991 35.9492 170.057 35.9492C170.942 35.9492 171.726 36.1126 172.408 36.4393C173.094 36.7612 173.641 37.2182 174.048 37.81C174.455 38.3971 174.687 39.0837 174.744 39.8697H172.287C172.188 39.3441 171.951 38.9061 171.577 38.5558C171.207 38.2006 170.713 38.0231 170.092 38.0231C169.567 38.0231 169.105 38.1651 168.707 38.4492C168.31 38.7286 168 39.131 167.777 39.6566C167.559 40.1822 167.45 40.8119 167.45 41.5458C167.45 42.2892 167.559 42.9284 167.777 43.4634C167.995 43.9937 168.3 44.4033 168.693 44.6921C169.091 44.9762 169.557 45.1183 170.092 45.1183C170.471 45.1183 170.81 45.0472 171.108 44.9052C171.411 44.7584 171.664 44.5477 171.868 44.2731C172.071 43.9985 172.211 43.6647 172.287 43.2717H174.744C174.683 44.0434 174.455 44.7276 174.062 45.3242C173.67 45.9161 173.134 46.3801 172.457 46.7163C171.78 47.0477 170.985 47.2134 170.071 47.2134Z" fill="#42516D"/>
<path d="M156.568 47.2205C155.876 47.2205 155.254 47.0974 154.7 46.8512C154.15 46.6003 153.715 46.2309 153.393 45.7433C153.076 45.2556 152.917 44.6542 152.917 43.9393C152.917 43.3237 153.031 42.8147 153.258 42.4123C153.485 42.0098 153.795 41.6879 154.188 41.4464C154.581 41.2049 155.024 41.0226 155.516 40.8995C156.014 40.7717 156.527 40.6793 157.058 40.6225C157.697 40.5562 158.215 40.497 158.613 40.445C159.011 40.3881 159.3 40.3029 159.479 40.1893C159.664 40.0709 159.756 39.8886 159.756 39.6424V39.5998C159.756 39.0647 159.598 38.6504 159.281 38.3569C158.963 38.0633 158.506 37.9165 157.91 37.9165C157.28 37.9165 156.781 38.0539 156.411 38.3285C156.047 38.6031 155.801 38.9274 155.673 39.3015L153.272 38.9606C153.461 38.2977 153.774 37.7437 154.21 37.2986C154.645 36.8488 155.178 36.5127 155.808 36.2901C156.437 36.0629 157.133 35.9492 157.896 35.9492C158.421 35.9492 158.944 36.0108 159.465 36.1339C159.986 36.257 160.462 36.4606 160.893 36.7447C161.324 37.024 161.669 37.4052 161.93 37.8881C162.195 38.3711 162.327 38.9748 162.327 39.6992V47.0004H159.856V45.5018H159.771C159.614 45.8048 159.394 46.0889 159.11 46.354C158.831 46.6145 158.478 46.8252 158.052 46.9862C157.631 47.1424 157.136 47.2205 156.568 47.2205ZM157.235 45.3313C157.751 45.3313 158.199 45.2295 158.577 45.0259C158.956 44.8176 159.247 44.543 159.451 44.2021C159.659 43.8611 159.764 43.4895 159.764 43.087V41.8015C159.683 41.8678 159.546 41.9293 159.352 41.9861C159.162 42.043 158.949 42.0927 158.712 42.1353C158.476 42.1779 158.241 42.2158 158.009 42.2489C157.777 42.2821 157.576 42.3105 157.406 42.3342C157.022 42.3862 156.679 42.4715 156.376 42.5898C156.073 42.7082 155.834 42.8739 155.658 43.087C155.483 43.2953 155.396 43.5652 155.396 43.8967C155.396 44.3701 155.569 44.7276 155.914 44.9691C156.26 45.2106 156.7 45.3313 157.235 45.3313Z" fill="#42516D"/>
<path d="M146.002 47.2134C144.909 47.2134 143.964 46.9861 143.169 46.5316C142.378 46.0723 141.769 45.4237 141.343 44.5856C140.917 43.7428 140.704 42.7508 140.704 41.6097C140.704 40.4876 140.917 39.5027 141.343 38.6552C141.774 37.8029 142.376 37.14 143.147 36.6665C143.919 36.1883 144.826 35.9492 145.867 35.9492C146.54 35.9492 147.174 36.0581 147.771 36.2759C148.372 36.489 148.902 36.8204 149.362 37.2702C149.826 37.7201 150.19 38.293 150.456 38.989C150.721 39.6803 150.853 40.5041 150.853 41.4606V42.2489H141.911V40.516H148.389C148.384 40.0236 148.277 39.5856 148.069 39.2021C147.861 38.8138 147.57 38.5084 147.196 38.2859C146.826 38.0633 146.395 37.9521 145.903 37.9521C145.377 37.9521 144.916 38.0799 144.518 38.3356C144.12 38.5865 143.81 38.918 143.588 39.3299C143.37 39.7371 143.259 40.1845 143.254 40.6722V42.185C143.254 42.8195 143.37 43.364 143.602 43.8185C143.834 44.2683 144.158 44.614 144.575 44.8555C144.992 45.0922 145.479 45.2106 146.038 45.2106C146.412 45.2106 146.751 45.1585 147.054 45.0543C147.357 44.9454 147.619 44.7868 147.842 44.5785C148.064 44.3701 148.233 44.1121 148.346 43.8043L150.747 44.0742C150.595 44.7087 150.306 45.2627 149.88 45.7362C149.459 46.2049 148.919 46.5695 148.261 46.8299C147.603 47.0856 146.85 47.2134 146.002 47.2134Z" fill="#42516D"/>
<path d="M128.034 46.9996V32.4541H133.489C134.606 32.4541 135.544 32.6482 136.301 33.0365C137.064 33.4247 137.639 33.9693 138.027 34.67C138.42 35.366 138.617 36.1781 138.617 37.1061C138.617 38.0389 138.418 38.8485 138.02 39.5351C137.627 40.2169 137.047 40.7448 136.28 41.1189C135.513 41.4882 134.571 41.6729 133.453 41.6729H129.568V39.4854H133.098C133.752 39.4854 134.287 39.3954 134.703 39.2155C135.12 39.0308 135.428 38.7633 135.627 38.4129C135.83 38.0578 135.932 37.6222 135.932 37.1061C135.932 36.59 135.83 36.1497 135.627 35.7851C135.423 35.4157 135.113 35.1364 134.696 34.947C134.279 34.7529 133.742 34.6558 133.084 34.6558H130.669V46.9996H128.034ZM135.548 40.4086L139.149 46.9996H136.209L132.672 40.4086H135.548Z" fill="#42516D"/>
<path d="M120.01 36.0912V38.0798H113.738V36.0912H120.01ZM115.287 33.4775H117.858V43.719C117.858 44.0647 117.91 44.3298 118.014 44.5145C118.123 44.6944 118.265 44.8175 118.44 44.8838C118.615 44.9501 118.809 44.9832 119.022 44.9832C119.183 44.9832 119.33 44.9714 119.463 44.9477C119.6 44.924 119.704 44.9027 119.775 44.8838L120.208 46.8937C120.071 46.9411 119.875 46.9932 119.619 47.05C119.368 47.1068 119.06 47.1399 118.696 47.1494C118.052 47.1684 117.472 47.0713 116.956 46.8582C116.44 46.6404 116.03 46.3042 115.727 45.8497C115.429 45.3952 115.282 44.827 115.287 44.1452V33.4775Z" fill="#42516D"/>
<path d="M111.714 32.4541V33.903C111.714 34.3196 111.633 34.7529 111.472 35.2027C111.316 35.6478 111.101 36.0739 110.826 36.4811C110.551 36.8836 110.239 37.2292 109.888 37.518L108.695 36.7439C108.956 36.3509 109.183 35.9271 109.377 35.4726C109.571 35.0133 109.668 34.4948 109.668 33.9172V32.4541H111.714Z" fill="#42516D"/>
<path d="M99.5173 40.6083V47.0004H96.9463V36.0913H99.4037V37.945H99.5315C99.7825 37.3342 100.183 36.8488 100.732 36.489C101.286 36.1291 101.97 35.9492 102.784 35.9492C103.537 35.9492 104.193 36.1102 104.752 36.4322C105.315 36.7541 105.751 37.2205 106.059 37.8313C106.371 38.4421 106.525 39.1831 106.52 40.0543V47.0004H103.949V40.4521C103.949 39.7229 103.76 39.1523 103.381 38.7404C103.007 38.3285 102.488 38.1225 101.826 38.1225C101.376 38.1225 100.976 38.2219 100.625 38.4208C100.28 38.6149 100.007 38.8967 99.8085 39.266C99.6144 39.6353 99.5173 40.0827 99.5173 40.6083Z" fill="#42516D"/>
<path d="M88.2004 47.2205C87.5091 47.2205 86.8865 47.0974 86.3325 46.8512C85.7832 46.6003 85.3476 46.2309 85.0257 45.7433C84.7084 45.2556 84.5498 44.6542 84.5498 43.9393C84.5498 43.3237 84.6634 42.8147 84.8907 42.4123C85.118 42.0098 85.4281 41.6879 85.8211 41.4464C86.2141 41.2049 86.6568 41.0226 87.1492 40.8995C87.6464 40.7717 88.1601 40.6793 88.6904 40.6225C89.3296 40.5562 89.8481 40.497 90.2458 40.445C90.6436 40.3881 90.9324 40.3029 91.1123 40.1893C91.297 40.0709 91.3893 39.8886 91.3893 39.6424V39.5998C91.3893 39.0647 91.2307 38.6504 90.9134 38.3569C90.5962 38.0633 90.1393 37.9165 89.5427 37.9165C88.913 37.9165 88.4134 38.0539 88.0441 38.3285C87.6795 38.6031 87.4333 38.9274 87.3055 39.3015L84.9049 38.9606C85.0943 38.2977 85.4068 37.7437 85.8424 37.2986C86.278 36.8488 86.8107 36.5127 87.4404 36.2901C88.0702 36.0629 88.7662 35.9492 89.5285 35.9492C90.0541 35.9492 90.5773 36.0108 91.0981 36.1339C91.6189 36.257 92.0948 36.4606 92.5257 36.7447C92.9565 37.024 93.3022 37.4052 93.5626 37.8881C93.8277 38.3711 93.9603 38.9748 93.9603 39.6992V47.0004H91.4887V45.5018H91.4035C91.2472 45.8048 91.0271 46.0889 90.743 46.354C90.4636 46.6145 90.1109 46.8252 89.6847 46.9862C89.2633 47.1424 88.7686 47.2205 88.2004 47.2205ZM88.868 45.3313C89.3841 45.3313 89.8315 45.2295 90.2103 45.0259C90.5891 44.8176 90.8803 44.543 91.0839 44.2021C91.2922 43.8611 91.3964 43.4895 91.3964 43.087V41.8015C91.3159 41.8678 91.1786 41.9293 90.9845 41.9861C90.7951 42.043 90.582 42.0927 90.3453 42.1353C90.1085 42.1779 89.8741 42.2158 89.6421 42.2489C89.4101 42.2821 89.2089 42.3105 89.0384 42.3342C88.6549 42.3862 88.3116 42.4715 88.0086 42.5898C87.7056 42.7082 87.4665 42.8739 87.2913 43.087C87.1161 43.2953 87.0285 43.5652 87.0285 43.8967C87.0285 44.3701 87.2013 44.7276 87.547 44.9691C87.8926 45.2106 88.3329 45.3313 88.868 45.3313Z" fill="#42516D"/>
<path d="M82.3626 37.3624H79.7063C79.6306 36.9268 79.4909 36.5409 79.2873 36.2047C79.0837 35.8638 78.8304 35.575 78.5273 35.3382C78.2243 35.1015 77.8787 34.9239 77.4904 34.8056C77.1069 34.6825 76.6926 34.6209 76.2475 34.6209C75.4568 34.6209 74.756 34.8198 74.1452 35.2175C73.5344 35.6105 73.0562 36.1882 72.7106 36.9505C72.3649 37.708 72.1921 38.6337 72.1921 39.7274C72.1921 40.8401 72.3649 41.7776 72.7106 42.5399C73.061 43.2975 73.5392 43.8704 74.1452 44.2587C74.756 44.6422 75.4544 44.834 76.2404 44.834C76.676 44.834 77.0832 44.7772 77.462 44.6635C77.8455 44.5452 78.1888 44.3723 78.4918 44.1451C78.7996 43.9178 79.0576 43.6384 79.266 43.307C79.479 42.9756 79.6258 42.5968 79.7063 42.1706L82.3626 42.1848C82.2631 42.8761 82.0477 43.5248 81.7163 44.1309C81.3896 44.7369 80.9611 45.272 80.4308 45.736C79.9004 46.1953 79.2802 46.5551 78.57 46.8155C77.8597 47.0712 77.0714 47.199 76.2049 47.199C74.9265 47.199 73.7854 46.9031 72.7816 46.3113C71.7778 45.7194 70.9871 44.8648 70.4094 43.7473C69.8318 42.6299 69.543 41.2899 69.543 39.7274C69.543 38.1602 69.8342 36.8203 70.4165 35.7076C70.9989 34.5901 71.792 33.7355 72.7958 33.1436C73.7996 32.5518 74.936 32.2559 76.2049 32.2559C77.0146 32.2559 77.7674 32.3695 78.4634 32.5968C79.1594 32.824 79.7797 33.1578 80.3242 33.5982C80.8687 34.0338 81.3162 34.5688 81.6665 35.2033C82.0217 35.833 82.2537 36.5527 82.3626 37.3624Z" fill="#42516D"/>
<path d="M61.298 32.4541V46.9996H58.6631V32.4541H61.298Z" fill="#42516D"/>
</svg>
