<svg width="302" height="136" viewBox="0 0 302 136" fill="none" xmlns="http://www.w3.org/2000/svg">
<path d="M0 20C0 8.95431 8.95431 0 20 0H282C293.046 0 302 8.95431 302 20V116C302 127.046 293.046 136 282 136H20C8.95431 136 0 127.046 0 116V20Z" fill="white"/>
<path d="M282 130V136H20V130H282ZM296 116V20C296 12.268 289.732 6 282 6H20C12.268 6 6 12.268 6 20V116C6 123.732 12.268 130 20 130V136C9.12703 136 0.280845 127.324 0.00683594 116.517L0 116V20C1.52214e-06 9.12703 8.67646 0.280844 19.4834 0.00683594L20 0H282L282.517 0.00683594C293.324 0.280845 302 9.12703 302 20V116L301.993 116.517C301.719 127.324 292.873 136 282 136V130C289.732 130 296 123.732 296 116Z" fill="#64BEFD"/>
<path d="M152.829 90.8516L152.52 104.372H149.51L149.21 90.8516H152.829ZM151.015 110.207C150.448 110.207 149.962 110.007 149.556 109.608C149.157 109.209 148.958 108.723 148.958 108.15C148.958 107.588 149.157 107.109 149.556 106.71C149.962 106.311 150.448 106.111 151.015 106.111C151.57 106.111 152.05 106.311 152.455 106.71C152.866 107.109 153.072 107.588 153.072 108.15C153.072 108.53 152.975 108.876 152.782 109.187C152.595 109.499 152.346 109.748 152.034 109.935C151.729 110.116 151.389 110.207 151.015 110.207Z" fill="#42516D"/>
<path d="M136.905 110.253C135.777 110.253 134.767 109.963 133.876 109.384C132.984 108.804 132.28 107.963 131.762 106.859C131.245 105.756 130.986 104.416 130.986 102.839C130.986 101.243 131.248 99.8964 131.772 98.7993C132.302 97.6959 133.015 96.8638 133.913 96.3027C134.811 95.7355 135.811 95.4519 136.914 95.4519C137.756 95.4519 138.448 95.5952 138.99 95.882C139.532 96.1625 139.963 96.5022 140.28 96.9012C140.598 97.2939 140.845 97.6648 141.019 98.0138H141.159V90.8516H144.554V110.001H141.225V107.738H141.019C140.845 108.087 140.592 108.458 140.262 108.851C139.931 109.237 139.495 109.568 138.953 109.842C138.41 110.116 137.728 110.253 136.905 110.253ZM137.849 107.476C138.566 107.476 139.177 107.283 139.682 106.897C140.187 106.504 140.57 105.958 140.832 105.26C141.094 104.562 141.225 103.749 141.225 102.82C141.225 101.891 141.094 101.084 140.832 100.398C140.577 99.7125 140.196 99.1795 139.691 98.7993C139.193 98.419 138.579 98.2289 137.849 98.2289C137.095 98.2289 136.466 98.4253 135.961 98.818C135.456 99.2107 135.076 99.753 134.82 100.445C134.564 101.137 134.437 101.928 134.437 102.82C134.437 103.717 134.564 104.519 134.82 105.223C135.082 105.921 135.465 106.473 135.97 106.878C136.481 107.277 137.108 107.476 137.849 107.476Z" fill="#42516D"/>
<path d="M121.295 110.281C119.892 110.281 118.677 109.972 117.648 109.355C116.62 108.738 115.822 107.875 115.255 106.765C114.694 105.655 114.413 104.359 114.413 102.875C114.413 101.392 114.694 100.092 115.255 98.9762C115.822 97.8604 116.62 96.994 117.648 96.3768C118.677 95.7597 119.892 95.4512 121.295 95.4512C122.697 95.4512 123.913 95.7597 124.941 96.3768C125.97 96.994 126.765 97.8604 127.326 98.9762C127.893 100.092 128.177 101.392 128.177 102.875C128.177 104.359 127.893 105.655 127.326 106.765C126.765 107.875 125.97 108.738 124.941 109.355C123.913 109.972 122.697 110.281 121.295 110.281ZM121.314 107.569C122.074 107.569 122.71 107.36 123.221 106.943C123.732 106.519 124.112 105.951 124.362 105.241C124.617 104.53 124.745 103.739 124.745 102.866C124.745 101.987 124.617 101.192 124.362 100.482C124.112 99.7647 123.732 99.1944 123.221 98.7705C122.71 98.3466 122.074 98.1347 121.314 98.1347C120.534 98.1347 119.886 98.3466 119.369 98.7705C118.858 99.1944 118.474 99.7647 118.219 100.482C117.969 101.192 117.845 101.987 117.845 102.866C117.845 103.739 117.969 104.53 118.219 105.241C118.474 105.951 118.858 106.519 119.369 106.943C119.886 107.36 120.534 107.569 121.314 107.569Z" fill="#42516D"/>
<path d="M104.749 110.281C103.346 110.281 102.131 109.972 101.102 109.355C100.074 108.738 99.276 107.875 98.7087 106.765C98.1477 105.655 97.8672 104.359 97.8672 102.875C97.8672 101.392 98.1477 100.092 98.7087 98.9762C99.276 97.8604 100.074 96.994 101.102 96.3768C102.131 95.7597 103.346 95.4512 104.749 95.4512C106.151 95.4512 107.367 95.7597 108.396 96.3768C109.424 96.994 110.219 97.8604 110.78 98.9762C111.347 100.092 111.631 101.392 111.631 102.875C111.631 104.359 111.347 105.655 110.78 106.765C110.219 107.875 109.424 108.738 108.396 109.355C107.367 109.972 106.151 110.281 104.749 110.281ZM104.768 107.569C105.528 107.569 106.164 107.36 106.675 106.943C107.186 106.519 107.567 105.951 107.816 105.241C108.071 104.53 108.199 103.739 108.199 102.866C108.199 101.987 108.071 101.192 107.816 100.482C107.567 99.7647 107.186 99.1944 106.675 98.7705C106.164 98.3466 105.528 98.1347 104.768 98.1347C103.988 98.1347 103.34 98.3466 102.823 98.7705C102.312 99.1944 101.928 99.7647 101.673 100.482C101.423 101.192 101.299 101.987 101.299 102.866C101.299 103.739 101.423 104.53 101.673 105.241C101.928 105.951 102.312 106.519 102.823 106.943C103.34 107.36 103.988 107.569 104.768 107.569Z" fill="#42516D"/>
<path d="M95.8465 95.6381V98.2561H87.3564V95.6381H95.8465ZM89.479 110V94.2823C89.479 93.3161 89.6784 92.512 90.0774 91.8699C90.4825 91.2279 91.0249 90.7479 91.7043 90.43C92.3838 90.1121 93.138 89.9531 93.9671 89.9531C94.553 89.9531 95.0735 89.9999 95.5286 90.0934C95.9836 90.1869 96.3202 90.271 96.5384 90.3458L95.8652 92.9639C95.7218 92.9203 95.541 92.8766 95.3228 92.833C95.1047 92.7831 94.8616 92.7582 94.5935 92.7582C93.9639 92.7582 93.5183 92.9109 93.2564 93.2164C93.0009 93.5156 92.8731 93.9457 92.8731 94.5067V110H89.479Z" fill="#42516D"/>
<path d="M70.5479 109.999V95.6373H73.8298V98.031H73.9794C74.2412 97.202 74.69 96.563 75.3258 96.1142C75.9679 95.6592 76.7003 95.4316 77.5231 95.4316C77.7101 95.4316 77.919 95.441 78.1496 95.4597C78.3865 95.4722 78.5828 95.494 78.7387 95.5251V98.6388C78.5953 98.5889 78.3678 98.5453 78.0561 98.5079C77.7507 98.4642 77.4546 98.4424 77.1678 98.4424C76.5507 98.4424 75.9959 98.5764 75.5035 98.8445C75.0173 99.1063 74.6339 99.4709 74.3534 99.9385C74.0729 100.406 73.9326 100.945 73.9326 101.556V109.999H70.5479Z" fill="#42516D"/>
<path d="M60.7722 110.281C59.3322 110.281 58.0886 109.981 57.0414 109.383C56.0004 108.778 55.1994 107.924 54.6384 106.821C54.0774 105.711 53.7969 104.406 53.7969 102.903C53.7969 101.426 54.0774 100.129 54.6384 99.0136C55.2056 97.8916 55.9973 97.0189 57.0134 96.3955C58.0294 95.766 59.2231 95.4512 60.5945 95.4512C61.4797 95.4512 62.3149 95.5945 63.1004 95.8813C63.892 96.1618 64.5902 96.5981 65.1948 97.1903C65.8057 97.7825 66.2857 98.5367 66.6348 99.4531C66.9838 100.363 67.1584 101.448 67.1584 102.707V103.745H55.3864V101.463H63.9138C63.9076 100.815 63.7673 100.238 63.4931 99.7336C63.2188 99.2224 62.8354 98.8204 62.343 98.5274C61.8568 98.2344 61.2895 98.0879 60.6413 98.0879C59.9493 98.0879 59.3416 98.2562 58.818 98.5928C58.2943 98.9232 57.886 99.3596 57.5931 99.9019C57.3063 100.438 57.1598 101.027 57.1536 101.669V103.661C57.1536 104.496 57.3063 105.213 57.6118 105.811C57.9172 106.403 58.3442 106.858 58.8928 107.176C59.4413 107.488 60.0834 107.644 60.8189 107.644C61.3114 107.644 61.757 107.575 62.156 107.438C62.5549 107.295 62.9009 107.086 63.1939 106.812C63.4868 106.537 63.7081 106.198 63.8577 105.793L67.0181 106.148C66.8186 106.983 66.4384 107.712 65.8774 108.336C65.3226 108.953 64.612 109.433 63.7455 109.776C62.8791 110.112 61.8879 110.281 60.7722 110.281Z" fill="#42516D"/>
<path d="M41.124 101.586V110.001H37.7393V90.8516H41.0492V98.0793H41.2175C41.5542 97.2689 42.0747 96.63 42.779 96.1625C43.4897 95.6888 44.3935 95.4519 45.4906 95.4519C46.488 95.4519 47.3575 95.6607 48.0993 96.0783C48.8411 96.496 49.4146 97.1069 49.8198 97.911C50.2312 98.7151 50.4369 99.6969 50.4369 100.856V110.001H47.0521V101.38C47.0521 100.414 46.8028 99.6626 46.3041 99.1265C45.8116 98.5842 45.1197 98.3131 44.2283 98.3131C43.6299 98.3131 43.0938 98.444 42.6201 98.7058C42.1526 98.9613 41.7848 99.3322 41.5168 99.8184C41.2549 100.305 41.124 100.894 41.124 101.586Z" fill="#42516D"/>
<path d="M237.403 83.3864C236.941 83.3864 236.514 83.349 236.122 83.2742C235.735 83.2056 235.427 83.1246 235.196 83.0311L235.981 80.3943C236.474 80.5377 236.913 80.6062 237.3 80.6C237.686 80.5938 238.026 80.4722 238.319 80.2353C238.618 80.0047 238.871 79.6182 239.076 79.0759L239.366 78.2999L234.158 63.6387H237.749L241.059 74.485H241.208L244.528 63.6387H248.127L242.377 79.7398C242.109 80.5003 241.754 81.1517 241.311 81.694C240.869 82.2425 240.326 82.6602 239.684 82.9469C239.048 83.2399 238.288 83.3864 237.403 83.3864Z" fill="#42516D"/>
<path d="M227.907 71.9604V63.6387H231.292V78.0006H228.01V75.448H227.86C227.536 76.2521 227.003 76.9098 226.261 77.4209C225.526 77.9321 224.619 78.1876 223.54 78.1876C222.599 78.1876 221.767 77.9788 221.044 77.5612C220.327 77.1373 219.766 76.5233 219.361 75.7192C218.956 74.9088 218.753 73.9302 218.753 72.7832V63.6387H222.138V72.2596C222.138 73.1697 222.387 73.8928 222.886 74.4288C223.384 74.9649 224.039 75.233 224.849 75.233C225.348 75.233 225.831 75.1114 226.299 74.8683C226.766 74.6252 227.149 74.2637 227.449 73.7837C227.754 73.2975 227.907 72.6897 227.907 71.9604Z" fill="#42516D"/>
<path d="M201.791 78.0009V58.8516H205.176V66.0138H205.316C205.491 65.6648 205.737 65.2939 206.055 64.9012C206.373 64.5022 206.803 64.1625 207.345 63.882C207.887 63.5953 208.579 63.4519 209.421 63.4519C210.53 63.4519 211.531 63.7355 212.422 64.3028C213.32 64.8638 214.03 65.6959 214.554 66.7993C215.084 67.8964 215.349 69.2428 215.349 70.8386C215.349 72.4156 215.09 73.7558 214.573 74.8592C214.055 75.9625 213.351 76.804 212.46 77.3837C211.568 77.9635 210.558 78.2533 209.43 78.2533C208.607 78.2533 207.925 78.1162 207.382 77.8419C206.84 77.5676 206.404 77.2373 206.073 76.8508C205.749 76.4581 205.497 76.0872 205.316 75.7381H205.12V78.0009H201.791ZM205.11 70.8199C205.11 71.7487 205.241 72.5621 205.503 73.2603C205.771 73.9584 206.154 74.5039 206.653 74.8966C207.158 75.2831 207.769 75.4763 208.486 75.4763C209.234 75.4763 209.86 75.2768 210.365 74.8779C210.87 74.4727 211.25 73.921 211.506 73.2229C211.768 72.5185 211.899 71.7175 211.899 70.8199C211.899 69.9285 211.771 69.1368 211.515 68.4449C211.26 67.753 210.879 67.2107 210.375 66.818C209.87 66.4253 209.24 66.2289 208.486 66.2289C207.763 66.2289 207.149 66.419 206.644 66.7993C206.139 67.1795 205.756 67.7125 205.494 68.3982C205.238 69.0838 205.11 69.8911 205.11 70.8199Z" fill="#42516D"/>
<path d="M191.226 63.6382V66.2562H182.97V63.6382H191.226ZM185.008 60.1973H188.393V73.6803C188.393 74.1354 188.461 74.4844 188.599 74.7275C188.742 74.9644 188.929 75.1265 189.16 75.2137C189.39 75.301 189.646 75.3447 189.926 75.3447C190.138 75.3447 190.331 75.3291 190.506 75.2979C190.687 75.2667 190.824 75.2387 190.917 75.2137L191.488 77.8599C191.307 77.9222 191.048 77.9908 190.712 78.0656C190.381 78.1404 189.976 78.184 189.496 78.1965C188.648 78.2214 187.885 78.0936 187.205 77.8131C186.526 77.5264 185.987 77.0838 185.588 76.4854C185.195 75.887 185.002 75.1389 185.008 74.2413V60.1973Z" fill="#42516D"/>
<path d="M172.541 78.29C171.631 78.29 170.812 78.1279 170.082 77.8038C169.359 77.4734 168.786 76.9872 168.362 76.3452C167.944 75.7031 167.735 74.9114 167.735 73.9702C167.735 73.1598 167.885 72.4897 168.184 71.9599C168.483 71.43 168.892 71.0062 169.409 70.6883C169.926 70.3703 170.509 70.1304 171.158 69.9683C171.812 69.8 172.488 69.6784 173.187 69.6036C174.028 69.5164 174.711 69.4384 175.234 69.3699C175.758 69.2951 176.138 69.1829 176.375 69.0333C176.618 68.8774 176.74 68.6374 176.74 68.3133V68.2572C176.74 67.5528 176.531 67.0074 176.113 66.6209C175.696 66.2344 175.094 66.0412 174.309 66.0412C173.48 66.0412 172.822 66.222 172.336 66.5835C171.856 66.945 171.532 67.372 171.363 67.8645L168.203 67.4157C168.452 66.543 168.864 65.8137 169.437 65.2277C170.011 64.6355 170.712 64.193 171.541 63.9C172.37 63.6008 173.286 63.4512 174.29 63.4512C174.982 63.4512 175.671 63.5322 176.356 63.6943C177.042 63.8563 177.668 64.1244 178.236 64.4984C178.803 64.8662 179.258 65.368 179.601 66.0038C179.95 66.6396 180.124 67.4344 180.124 68.3881V78.0001H176.871V76.0272H176.758C176.553 76.4262 176.263 76.8002 175.889 77.1493C175.521 77.4921 175.057 77.7695 174.496 77.9814C173.941 78.1872 173.289 78.29 172.541 78.29ZM173.42 75.8028C174.1 75.8028 174.689 75.6688 175.187 75.4008C175.686 75.1265 176.07 74.765 176.338 74.3162C176.612 73.8673 176.749 73.378 176.749 72.8482V71.1558C176.643 71.243 176.462 71.3241 176.207 71.3989C175.957 71.4737 175.677 71.5391 175.365 71.5952C175.053 71.6513 174.745 71.7012 174.439 71.7448C174.134 71.7885 173.869 71.8259 173.645 71.857C173.14 71.9256 172.688 72.0378 172.289 72.1936C171.89 72.3495 171.575 72.5677 171.345 72.8482C171.114 73.1224 170.999 73.4777 170.999 73.9141C170.999 74.5374 171.226 75.0081 171.681 75.326C172.136 75.6439 172.716 75.8028 173.42 75.8028Z" fill="#42516D"/>
<path d="M158.95 78.2807C157.516 78.2807 156.285 77.9659 155.257 77.3363C154.234 76.7067 153.446 75.8371 152.891 74.7276C152.343 73.6118 152.068 72.3277 152.068 70.8753C152.068 69.4166 152.349 68.1294 152.91 67.0136C153.471 65.8916 154.263 65.0189 155.285 64.3955C156.313 63.766 157.529 63.4512 158.931 63.4512C160.097 63.4512 161.129 63.6662 162.026 64.0963C162.93 64.5202 163.65 65.1217 164.186 65.9009C164.722 66.6739 165.028 67.5777 165.103 68.6125H161.867C161.737 67.9206 161.425 67.344 160.932 66.8827C160.446 66.4152 159.795 66.1814 158.978 66.1814C158.286 66.1814 157.678 66.3684 157.155 66.7425C156.631 67.1102 156.223 67.6401 155.93 68.332C155.643 69.0239 155.5 69.853 155.5 70.8192C155.5 71.7978 155.643 72.6393 155.93 73.3437C156.217 74.0419 156.619 74.5811 157.136 74.9613C157.66 75.3353 158.274 75.5223 158.978 75.5223C159.477 75.5223 159.923 75.4288 160.315 75.2418C160.714 75.0486 161.048 74.7712 161.316 74.4097C161.584 74.0481 161.768 73.6086 161.867 73.0913H165.103C165.022 74.1073 164.722 75.0081 164.205 75.7935C163.688 76.5727 162.983 77.1836 162.092 77.6261C161.2 78.0625 160.153 78.2807 158.95 78.2807Z" fill="#42516D"/>
<path d="M135.851 78.2807C134.411 78.2807 133.168 77.9814 132.121 77.383C131.08 76.7784 130.279 75.9244 129.717 74.8211C129.156 73.7115 128.876 72.4056 128.876 70.9033C128.876 69.426 129.156 68.1294 129.717 67.0136C130.285 65.8916 131.076 65.0189 132.092 64.3955C133.109 63.766 134.302 63.4512 135.674 63.4512C136.559 63.4512 137.394 63.5945 138.179 63.8813C138.971 64.1618 139.669 64.5981 140.274 65.1903C140.885 65.7825 141.365 66.5368 141.714 67.4531C142.063 68.3632 142.237 69.4478 142.237 70.707V71.7448H130.466V69.4634H138.993C138.987 68.8151 138.846 68.2385 138.572 67.7336C138.298 67.2224 137.915 66.8204 137.422 66.5274C136.936 66.2344 136.369 66.0879 135.72 66.0879C135.028 66.0879 134.421 66.2562 133.897 66.5928C133.373 66.9232 132.965 67.3596 132.672 67.9019C132.385 68.438 132.239 69.027 132.233 69.6691V71.6607C132.233 72.496 132.385 73.2128 132.691 73.8112C132.996 74.4034 133.423 74.8585 133.972 75.1764C134.52 75.488 135.162 75.6439 135.898 75.6439C136.39 75.6439 136.836 75.5753 137.235 75.4382C137.634 75.2948 137.98 75.086 138.273 74.8117C138.566 74.5374 138.787 74.1977 138.937 73.7925L142.097 74.1478C141.898 74.9831 141.517 75.7125 140.956 76.3358C140.402 76.9529 139.691 77.4329 138.825 77.7757C137.958 78.1123 136.967 78.2807 135.851 78.2807Z" fill="#42516D"/>
<path d="M116.203 69.5856V78.0009H112.818V58.8516H116.128V66.0793H116.297C116.633 65.2689 117.154 64.63 117.858 64.1625C118.569 63.6888 119.473 63.4519 120.57 63.4519C121.567 63.4519 122.437 63.6607 123.178 64.0783C123.92 64.496 124.494 65.1069 124.899 65.911C125.31 66.7151 125.516 67.6969 125.516 68.8563V78.0009H122.131V69.3799C122.131 68.4137 121.882 67.6626 121.383 67.1265C120.891 66.5842 120.199 66.3131 119.307 66.3131C118.709 66.3131 118.173 66.444 117.699 66.7058C117.232 66.9613 116.864 67.3322 116.596 67.8184C116.334 68.3047 116.203 68.8937 116.203 69.5856Z" fill="#42516D"/>
<path d="M109.153 63.6382V66.2562H100.896V63.6382H109.153ZM102.935 60.1973H106.32V73.6803C106.32 74.1354 106.388 74.4844 106.525 74.7275C106.669 74.9644 106.856 75.1265 107.086 75.2137C107.317 75.301 107.573 75.3447 107.853 75.3447C108.065 75.3447 108.258 75.3291 108.433 75.2979C108.614 75.2667 108.751 75.2387 108.844 75.2137L109.415 77.8599C109.234 77.9222 108.975 77.9908 108.638 78.0656C108.308 78.1404 107.903 78.184 107.423 78.1965C106.575 78.2214 105.812 78.0936 105.132 77.8131C104.453 77.5264 103.913 77.0838 103.515 76.4854C103.122 75.887 102.929 75.1389 102.935 74.2413V60.1973Z" fill="#42516D"/>
<path d="M77.9404 83.3859V63.6382H81.2691V66.0131H81.4655C81.64 65.6641 81.8862 65.2932 82.2041 64.9005C82.522 64.5015 82.9522 64.1618 83.4945 63.8813C84.0368 63.5945 84.7287 63.4512 85.5702 63.4512C86.6798 63.4512 87.6803 63.7348 88.5717 64.302C89.4693 64.8631 90.1799 65.6952 90.7035 66.7986C91.2334 67.8957 91.4983 69.2421 91.4983 70.8379C91.4983 72.4149 91.2396 73.7551 90.7222 74.8585C90.2048 75.9618 89.5004 76.8033 88.6091 77.383C87.7177 77.9627 86.7078 78.2526 85.5796 78.2526C84.7568 78.2526 84.0742 78.1155 83.5319 77.8412C82.9896 77.5669 82.5532 77.2365 82.2228 76.8501C81.8987 76.4574 81.6462 76.0865 81.4655 75.7374H81.3252V83.3859H77.9404ZM81.2598 70.8192C81.2598 71.748 81.3907 72.5614 81.6525 73.2596C81.9205 73.9577 82.3039 74.5032 82.8026 74.8959C83.3075 75.2823 83.9184 75.4756 84.6352 75.4756C85.3832 75.4756 86.0097 75.2761 86.5146 74.8772C87.0195 74.472 87.3998 73.9203 87.6553 73.2222C87.9171 72.5178 88.048 71.7168 88.048 70.8192C88.048 69.9278 87.9203 69.1361 87.6647 68.4442C87.4091 67.7523 87.0289 67.21 86.524 66.8173C86.019 66.4245 85.3895 66.2282 84.6352 66.2282C83.9121 66.2282 83.2981 66.4183 82.7932 66.7986C82.2883 67.1788 81.9049 67.7118 81.6431 68.3974C81.3876 69.0831 81.2598 69.8904 81.2598 70.8192Z" fill="#42516D"/>
<path d="M73.9326 58.8516V78.0009H70.5479V58.8516H73.9326Z" fill="#42516D"/>
<path d="M60.7722 78.2807C59.3322 78.2807 58.0886 77.9814 57.0414 77.383C56.0004 76.7784 55.1994 75.9244 54.6384 74.8211C54.0774 73.7115 53.7969 72.4056 53.7969 70.9033C53.7969 69.426 54.0774 68.1294 54.6384 67.0136C55.2056 65.8916 55.9973 65.0189 57.0134 64.3955C58.0294 63.766 59.2231 63.4512 60.5945 63.4512C61.4797 63.4512 62.3149 63.5945 63.1004 63.8813C63.892 64.1618 64.5902 64.5981 65.1948 65.1903C65.8057 65.7825 66.2857 66.5368 66.6348 67.4531C66.9838 68.3632 67.1584 69.4478 67.1584 70.707V71.7448H55.3864V69.4634H63.9138C63.9076 68.8151 63.7673 68.2385 63.4931 67.7336C63.2188 67.2224 62.8354 66.8204 62.343 66.5274C61.8568 66.2344 61.2895 66.0879 60.6413 66.0879C59.9493 66.0879 59.3416 66.2562 58.818 66.5928C58.2943 66.9232 57.886 67.3596 57.5931 67.9019C57.3063 68.438 57.1598 69.027 57.1536 69.6691V71.6607C57.1536 72.496 57.3063 73.2128 57.6118 73.8112C57.9172 74.4034 58.3442 74.8585 58.8928 75.1764C59.4413 75.488 60.0834 75.6439 60.8189 75.6439C61.3114 75.6439 61.757 75.5753 62.156 75.4382C62.5549 75.2948 62.9009 75.086 63.1939 74.8117C63.4868 74.5374 63.7081 74.1977 63.8577 73.7925L67.0181 74.1478C66.8186 74.9831 66.4384 75.7125 65.8774 76.3358C65.3226 76.9529 64.612 77.4329 63.7455 77.7757C62.8791 78.1123 61.8879 78.2807 60.7722 78.2807Z" fill="#42516D"/>
<path d="M41.124 69.5856V78.0009H37.7393V58.8516H41.0492V66.0793H41.2175C41.5542 65.2689 42.0747 64.63 42.779 64.1625C43.4897 63.6888 44.3935 63.4519 45.4906 63.4519C46.488 63.4519 47.3575 63.6607 48.0993 64.0783C48.8411 64.496 49.4146 65.1069 49.8198 65.911C50.2312 66.7151 50.4369 67.6969 50.4369 68.8563V78.0009H47.0521V69.3799C47.0521 68.4137 46.8028 67.6626 46.3041 67.1265C45.8116 66.5842 45.1197 66.3131 44.2283 66.3131C43.6299 66.3131 43.0938 66.444 42.6201 66.7058C42.1526 66.9613 41.7848 67.3322 41.5168 67.8184C41.2549 68.3047 41.124 68.8937 41.124 69.5856Z" fill="#42516D"/>
<path d="M241.743 46.2807C240.341 46.2807 239.125 45.9721 238.097 45.355C237.068 44.7379 236.27 43.8745 235.703 42.765C235.142 41.6554 234.861 40.3588 234.861 38.8753C234.861 37.3917 235.142 36.092 235.703 34.9762C236.27 33.8604 237.068 32.994 238.097 32.3768C239.125 31.7597 240.341 31.4512 241.743 31.4512C243.146 31.4512 244.361 31.7597 245.39 32.3768C246.418 32.994 247.213 33.8604 247.774 34.9762C248.341 36.092 248.625 37.3917 248.625 38.8753C248.625 40.3588 248.341 41.6554 247.774 42.765C247.213 43.8745 246.418 44.7379 245.39 45.355C244.361 45.9721 243.146 46.2807 241.743 46.2807ZM241.762 43.5691C242.522 43.5691 243.158 43.3603 243.669 42.9426C244.18 42.5187 244.561 41.9515 244.81 41.2409C245.066 40.5303 245.193 39.7386 245.193 38.8659C245.193 37.987 245.066 37.1922 244.81 36.4816C244.561 35.7647 244.18 35.1944 243.669 34.7705C243.158 34.3466 242.522 34.1347 241.762 34.1347C240.983 34.1347 240.334 34.3466 239.817 34.7705C239.306 35.1944 238.922 35.7647 238.667 36.4816C238.418 37.1922 238.293 37.987 238.293 38.8659C238.293 39.7386 238.418 40.5303 238.667 41.2409C238.922 41.9515 239.306 42.5187 239.817 42.9426C240.334 43.3603 240.983 43.5691 241.762 43.5691Z" fill="#42516D"/>
<path d="M232.276 31.6382V34.2562H224.02V31.6382H232.276ZM226.058 28.1973H229.443V41.6803C229.443 42.1354 229.511 42.4844 229.648 42.7275C229.792 42.9644 229.979 43.1265 230.209 43.2138C230.44 43.301 230.696 43.3447 230.976 43.3447C231.188 43.3447 231.381 43.3291 231.556 43.2979C231.737 43.2667 231.874 43.2387 231.967 43.2138L232.538 45.8599C232.357 45.9222 232.098 45.9908 231.762 46.0656C231.431 46.1404 231.026 46.184 230.546 46.1965C229.698 46.2214 228.935 46.0936 228.255 45.8131C227.576 45.5264 227.037 45.0838 226.638 44.4854C226.245 43.887 226.052 43.1389 226.058 42.2413V28.1973Z" fill="#42516D"/>
<path d="M214.42 35.4344L211.334 35.771C211.247 35.4593 211.094 35.1663 210.876 34.8921C210.664 34.6178 210.377 34.3965 210.016 34.2282C209.654 34.0599 209.212 33.9757 208.688 33.9757C207.984 33.9757 207.391 34.1285 206.911 34.4339C206.438 34.7393 206.204 35.1352 206.21 35.6214C206.204 36.039 206.357 36.3787 206.668 36.6406C206.986 36.9024 207.51 37.1174 208.239 37.2857L210.689 37.8093C212.048 38.1023 213.058 38.5667 213.718 39.2025C214.385 39.8383 214.722 40.6705 214.728 41.699C214.722 42.6029 214.457 43.4008 213.933 44.0927C213.416 44.7784 212.696 45.3145 211.773 45.7009C210.851 46.0874 209.791 46.2807 208.594 46.2807C206.837 46.2807 205.422 45.9129 204.349 45.1773C203.277 44.4355 202.638 43.4039 202.433 42.0824L205.733 41.7645C205.883 42.4128 206.201 42.9021 206.687 43.2325C207.173 43.5628 207.806 43.728 208.585 43.728C209.389 43.728 210.034 43.5628 210.521 43.2325C211.013 42.9021 211.259 42.4938 211.259 42.0076C211.259 41.5962 211.1 41.2565 210.782 40.9884C210.471 40.7204 209.984 40.5147 209.324 40.3713L206.874 39.857C205.496 39.5703 204.477 39.0872 203.816 38.4078C203.156 37.7221 202.828 36.8556 202.835 35.8084C202.828 34.9232 203.068 34.1565 203.555 33.5082C204.047 32.8537 204.73 32.3488 205.602 31.9935C206.481 31.6319 207.494 31.4512 208.641 31.4512C210.324 31.4512 211.649 31.8096 212.615 32.5265C213.587 33.2433 214.189 34.2126 214.42 35.4344Z" fill="#42516D"/>
<path d="M199.916 31.6382V34.2562H191.66V31.6382H199.916ZM193.699 28.1973H197.083V41.6803C197.083 42.1354 197.152 42.4844 197.289 42.7275C197.432 42.9644 197.619 43.1265 197.85 43.2138C198.081 43.301 198.336 43.3447 198.617 43.3447C198.829 43.3447 199.022 43.3291 199.196 43.2979C199.377 43.2667 199.514 43.2387 199.608 43.2138L200.178 45.8599C199.997 45.9222 199.739 45.9908 199.402 46.0656C199.072 46.1404 198.667 46.184 198.187 46.1965C197.339 46.2214 196.575 46.0936 195.896 45.8131C195.216 45.5264 194.677 45.0838 194.278 44.4854C193.886 43.887 193.692 43.1389 193.699 42.2413V28.1973Z" fill="#42516D"/>
<path d="M183.287 46.2807C181.853 46.2807 180.622 45.9659 179.594 45.3363C178.571 44.7067 177.783 43.8371 177.228 42.7276C176.68 41.6118 176.405 40.3277 176.405 38.8753C176.405 37.4166 176.686 36.1294 177.247 35.0136C177.808 33.8916 178.599 33.0189 179.622 32.3955C180.65 31.766 181.866 31.4512 183.268 31.4512C184.434 31.4512 185.466 31.6662 186.363 32.0963C187.267 32.5202 187.987 33.1217 188.523 33.9009C189.059 34.6739 189.365 35.5777 189.44 36.6125H186.204C186.073 35.9206 185.762 35.344 185.269 34.8827C184.783 34.4152 184.132 34.1814 183.315 34.1814C182.623 34.1814 182.015 34.3684 181.492 34.7425C180.968 35.1102 180.56 35.6401 180.267 36.332C179.98 37.0239 179.837 37.853 179.837 38.8192C179.837 39.7978 179.98 40.6393 180.267 41.3437C180.554 42.0419 180.956 42.5811 181.473 42.9613C181.997 43.3353 182.611 43.5223 183.315 43.5223C183.814 43.5223 184.259 43.4288 184.652 43.2418C185.051 43.0486 185.385 42.7712 185.653 42.4097C185.921 42.0481 186.105 41.6086 186.204 41.0913H189.44C189.358 42.1073 189.059 43.0081 188.542 43.7935C188.025 44.5727 187.32 45.1836 186.429 45.6261C185.537 46.0625 184.49 46.2807 183.287 46.2807Z" fill="#42516D"/>
<path d="M167.246 46.2807C165.806 46.2807 164.562 45.9814 163.515 45.383C162.474 44.7784 161.673 43.9244 161.112 42.8211C160.551 41.7115 160.271 40.4056 160.271 38.9033C160.271 37.426 160.551 36.1294 161.112 35.0136C161.679 33.8916 162.471 33.0189 163.487 32.3955C164.503 31.766 165.697 31.4512 167.068 31.4512C167.953 31.4512 168.789 31.5945 169.574 31.8813C170.366 32.1618 171.064 32.5981 171.668 33.1903C172.279 33.7825 172.759 34.5368 173.108 35.4531C173.457 36.3632 173.632 37.4478 173.632 38.707V39.7448H161.86V37.4634H170.387C170.381 36.8151 170.241 36.2385 169.967 35.7336C169.692 35.2224 169.309 34.8204 168.817 34.5274C168.33 34.2344 167.763 34.0879 167.115 34.0879C166.423 34.0879 165.815 34.2562 165.292 34.5929C164.768 34.9232 164.36 35.3596 164.067 35.9019C163.78 36.438 163.633 37.027 163.627 37.6691V39.6607C163.627 40.496 163.78 41.2128 164.085 41.8112C164.391 42.4034 164.818 42.8585 165.366 43.1764C165.915 43.488 166.557 43.6439 167.293 43.6439C167.785 43.6439 168.231 43.5753 168.63 43.4382C169.029 43.2948 169.375 43.086 169.667 42.8117C169.96 42.5374 170.182 42.1977 170.331 41.7925L173.492 42.1478C173.292 42.9831 172.912 43.7125 172.351 44.3358C171.796 44.9529 171.086 45.4329 170.219 45.7757C169.353 46.1123 168.362 46.2807 167.246 46.2807Z" fill="#42516D"/>
<path d="M153.495 31.6388H156.88V46.8236C156.88 47.8583 156.684 48.7123 156.291 49.3855C155.898 50.0588 155.331 50.5605 154.589 50.8909C153.848 51.2213 152.947 51.3865 151.887 51.3865C151.763 51.3865 151.647 51.3834 151.541 51.3771C151.435 51.3771 151.32 51.374 151.195 51.3678V48.6095C151.289 48.6157 151.373 48.6188 151.448 48.6188C151.523 48.625 151.6 48.6282 151.682 48.6282C152.33 48.6282 152.794 48.4692 153.075 48.1513C153.355 47.8396 153.495 47.3815 153.495 46.7768V31.6388ZM155.179 29.6004C154.636 29.6004 154.172 29.4228 153.785 29.0675C153.405 28.7059 153.215 28.2727 153.215 27.7678C153.215 27.2566 153.405 26.8234 153.785 26.4681C154.172 26.1066 154.636 25.9258 155.179 25.9258C155.715 25.9258 156.173 26.1066 156.553 26.4681C156.939 26.8234 157.133 27.2566 157.133 27.7678C157.133 28.2727 156.939 28.7059 156.553 29.0675C156.173 29.4228 155.715 29.6004 155.179 29.6004Z" fill="#42516D"/>
<path d="M136.533 46.0009V26.8516H139.918V34.0138H140.058C140.233 33.6648 140.479 33.2939 140.797 32.9012C141.115 32.5022 141.545 32.1625 142.087 31.882C142.63 31.5953 143.321 31.4519 144.163 31.4519C145.273 31.4519 146.273 31.7355 147.164 32.3028C148.062 32.8638 148.773 33.6959 149.296 34.7993C149.826 35.8964 150.091 37.2428 150.091 38.8386C150.091 40.4156 149.832 41.7558 149.315 42.8592C148.798 43.9625 148.093 44.804 147.202 45.3837C146.31 45.9635 145.301 46.2533 144.172 46.2533C143.35 46.2533 142.667 46.1162 142.125 45.8419C141.582 45.5676 141.146 45.2373 140.816 44.8508C140.491 44.4581 140.239 44.0872 140.058 43.7381H139.862V46.0009H136.533ZM139.853 38.8199C139.853 39.7487 139.983 40.5621 140.245 41.2603C140.513 41.9584 140.897 42.5039 141.395 42.8966C141.9 43.2831 142.511 43.4763 143.228 43.4763C143.976 43.4763 144.602 43.2768 145.107 42.8779C145.612 42.4727 145.993 41.921 146.248 41.2229C146.51 40.5185 146.641 39.7175 146.641 38.8199C146.641 37.9285 146.513 37.1368 146.257 36.4449C146.002 35.753 145.622 35.2107 145.117 34.818C144.612 34.4253 143.982 34.2289 143.228 34.2289C142.505 34.2289 141.891 34.419 141.386 34.7993C140.881 35.1795 140.498 35.7125 140.236 36.3982C139.98 37.0838 139.853 37.8911 139.853 38.8199Z" fill="#42516D"/>
<path d="M126.102 46.2807C124.7 46.2807 123.484 45.9721 122.456 45.355C121.427 44.7379 120.629 43.8745 120.062 42.765C119.501 41.6554 119.221 40.3588 119.221 38.8753C119.221 37.3917 119.501 36.092 120.062 34.9762C120.629 33.8604 121.427 32.994 122.456 32.3768C123.484 31.7597 124.7 31.4512 126.102 31.4512C127.505 31.4512 128.721 31.7597 129.749 32.3768C130.778 32.994 131.572 33.8604 132.133 34.9762C132.701 36.092 132.984 37.3917 132.984 38.8753C132.984 40.3588 132.701 41.6554 132.133 42.765C131.572 43.8745 130.778 44.7379 129.749 45.355C128.721 45.9721 127.505 46.2807 126.102 46.2807ZM126.121 43.5691C126.882 43.5691 127.517 43.3603 128.029 42.9426C128.54 42.5187 128.92 41.9515 129.169 41.2409C129.425 40.5303 129.553 39.7386 129.553 38.8659C129.553 37.987 129.425 37.1922 129.169 36.4816C128.92 35.7647 128.54 35.1944 128.029 34.7705C127.517 34.3466 126.882 34.1347 126.121 34.1347C125.342 34.1347 124.694 34.3466 124.176 34.7705C123.665 35.1944 123.282 35.7647 123.026 36.4816C122.777 37.1922 122.652 37.987 122.652 38.8659C122.652 39.7386 122.777 40.5303 123.026 41.2409C123.282 41.9515 123.665 42.5187 124.176 42.9426C124.694 43.3603 125.342 43.5691 126.121 43.5691Z" fill="#42516D"/>
<path d="M100.348 41.494L100.339 37.408H100.881L106.043 31.6389H109.998L103.649 38.7077H102.948L100.348 41.494ZM97.2627 46.0009V26.8516H100.647V46.0009H97.2627ZM106.276 46.0009L101.601 39.465L103.883 37.0807L110.325 46.0009H106.276Z" fill="#42516D"/>
<path d="M87.8046 46.2807C86.3709 46.2807 85.1398 45.9659 84.1113 45.3363C83.089 44.7067 82.3005 43.8371 81.7457 42.7276C81.1971 41.6118 80.9229 40.3277 80.9229 38.8753C80.9229 37.4166 81.2034 36.1294 81.7644 35.0136C82.3254 33.8916 83.117 33.0189 84.1393 32.3955C85.1679 31.766 86.3834 31.4512 87.7859 31.4512C88.9516 31.4512 89.9832 31.6662 90.8809 32.0963C91.7847 32.5202 92.5047 33.1217 93.0408 33.9009C93.5768 34.6739 93.8823 35.5777 93.9571 36.6125H90.7219C90.591 35.9206 90.2793 35.344 89.7869 34.8827C89.3007 34.4152 88.6493 34.1814 87.8327 34.1814C87.1408 34.1814 86.533 34.3684 86.0094 34.7425C85.4858 35.1102 85.0775 35.6401 84.7845 36.332C84.4978 37.0239 84.3544 37.853 84.3544 38.8192C84.3544 39.7978 84.4978 40.6393 84.7845 41.3437C85.0712 42.0419 85.4733 42.5811 85.9907 42.9613C86.5143 43.3353 87.1283 43.5223 87.8327 43.5223C88.3314 43.5223 88.7771 43.4288 89.1698 43.2418C89.5687 43.0486 89.9022 42.7712 90.1702 42.4097C90.4383 42.0481 90.6222 41.6086 90.7219 41.0913H93.9571C93.8761 42.1073 93.5768 43.0081 93.0595 43.7935C92.5421 44.5727 91.8377 45.1836 90.9463 45.6261C90.0549 46.0625 89.0077 46.2807 87.8046 46.2807Z" fill="#42516D"/>
<path d="M70.0267 46.29C69.1166 46.29 68.2969 46.1279 67.5676 45.8038C66.8445 45.4734 66.271 44.9872 65.8472 44.3452C65.4295 43.7031 65.2207 42.9115 65.2207 41.9702C65.2207 41.1598 65.3703 40.4897 65.6695 39.9599C65.9687 39.43 66.377 39.0062 66.8944 38.6883C67.4118 38.3704 67.9946 38.1304 68.6429 37.9683C69.2974 37.8 69.9737 37.6784 70.6719 37.6036C71.5134 37.5164 72.196 37.4384 72.7196 37.3699C73.2432 37.2951 73.6235 37.1829 73.8603 37.0333C74.1034 36.8774 74.225 36.6374 74.225 36.3133V36.2572C74.225 35.5528 74.0162 35.0074 73.5985 34.6209C73.1809 34.2344 72.5793 34.0412 71.7939 34.0412C70.9649 34.0412 70.3072 34.222 69.821 34.5835C69.341 34.945 69.0169 35.372 68.8486 35.8645L65.6882 35.4157C65.9376 34.543 66.349 33.8137 66.9224 33.2277C67.4959 32.6355 68.1972 32.193 69.0262 31.9C69.8553 31.6008 70.7716 31.4512 71.7752 31.4512C72.4671 31.4512 73.1559 31.5322 73.8416 31.6943C74.5273 31.8563 75.1538 32.1244 75.721 32.4984C76.2883 32.8662 76.7433 33.368 77.0862 34.0038C77.4352 34.6396 77.6098 35.4344 77.6098 36.3881V46.0001H74.3559V44.0272H74.2437C74.038 44.4262 73.7481 44.8002 73.3741 45.1493C73.0063 45.4921 72.5419 45.7695 71.9809 45.9814C71.4261 46.1872 70.7747 46.29 70.0267 46.29ZM70.9057 43.8028C71.5851 43.8028 72.1742 43.6688 72.6728 43.4008C73.1715 43.1265 73.5549 42.765 73.8229 42.3162C74.0972 41.8673 74.2343 41.378 74.2343 40.8482V39.1558C74.1284 39.243 73.9476 39.3241 73.692 39.3989C73.4427 39.4737 73.1622 39.5391 72.8505 39.5952C72.5388 39.6513 72.2303 39.7012 71.9248 39.7448C71.6194 39.7885 71.3545 39.8259 71.1301 39.857C70.6251 39.9256 70.1732 40.0378 69.7743 40.1936C69.3753 40.3495 69.0605 40.5677 68.8299 40.8482C68.5993 41.1224 68.4839 41.4777 68.4839 41.9141C68.4839 42.5374 68.7115 43.0081 69.1665 43.326C69.6215 43.6439 70.2013 43.8028 70.9057 43.8028Z" fill="#42516D"/>
<path d="M62.5365 31.6382V34.2562H54.2803V31.6382H62.5365ZM56.3186 28.1973H59.7034V41.6803C59.7034 42.1354 59.772 42.4844 59.9091 42.7275C60.0525 42.9644 60.2395 43.1265 60.4701 43.2138C60.7008 43.301 60.9563 43.3447 61.2369 43.3447C61.4488 43.3447 61.642 43.3291 61.8166 43.2979C61.9973 43.2667 62.1345 43.2387 62.228 43.2138L62.7983 45.8599C62.6176 45.9222 62.3589 45.9908 62.0223 46.0656C61.6919 46.1404 61.2867 46.184 60.8067 46.1965C59.959 46.2214 59.1954 46.0936 58.5159 45.8131C57.8365 45.5264 57.2973 45.0838 56.8983 44.4854C56.5056 43.887 56.3124 43.1389 56.3186 42.2413V28.1973Z" fill="#42516D"/>
<path d="M48.296 32.1158C48.2087 31.2992 47.841 30.6634 47.1927 30.2084C46.5506 29.7533 45.7153 29.5258 44.6868 29.5258C43.9637 29.5258 43.3435 29.6349 42.8261 29.8531C42.3087 30.0712 41.9129 30.3673 41.6386 30.7414C41.3644 31.1154 41.2241 31.5424 41.2179 32.0223C41.2179 32.4213 41.3083 32.7672 41.489 33.0602C41.676 33.3532 41.9285 33.6025 42.2464 33.8082C42.5643 34.0077 42.9165 34.176 43.303 34.3131C43.6894 34.4503 44.079 34.5656 44.4718 34.6591L46.267 35.1079C46.9901 35.2762 47.6851 35.5037 48.3521 35.7905C49.0253 36.0772 49.6269 36.4388 50.1567 36.8751C50.6928 37.3115 51.1167 37.8382 51.4283 38.4553C51.74 39.0724 51.8958 39.7955 51.8958 40.6246C51.8958 41.7466 51.6091 42.7346 51.0356 43.5886C50.4621 44.4363 49.6331 45.1002 48.5485 45.5802C47.4701 46.0539 46.1641 46.2908 44.6307 46.2908C43.1409 46.2908 41.8475 46.0602 40.7504 45.5989C39.6595 45.1376 38.8055 44.4644 38.1884 43.5792C37.5775 42.6941 37.2471 41.6157 37.1973 40.344H40.6101C40.66 41.011 40.8657 41.5658 41.2272 42.0084C41.5888 42.451 42.0594 42.7813 42.6391 42.9995C43.2251 43.2177 43.8796 43.3268 44.6027 43.3268C45.3569 43.3268 46.0177 43.2146 46.5849 42.9902C47.1584 42.7595 47.6072 42.4416 47.9313 42.0364C48.2555 41.625 48.4207 41.1451 48.4269 40.5965C48.4207 40.0978 48.2742 39.6864 47.9874 39.3623C47.7007 39.0319 47.2986 38.7576 46.7813 38.5395C46.2701 38.315 45.6717 38.1156 44.986 37.941L42.8074 37.38C41.2303 36.9748 39.9836 36.3608 39.0673 35.538C38.1572 34.709 37.7022 33.6088 37.7022 32.2374C37.7022 31.1091 38.0076 30.1211 38.6185 29.2734C39.2356 28.4256 40.074 27.768 41.1337 27.3005C42.1934 26.8267 43.3934 26.5898 44.7336 26.5898C46.0925 26.5898 47.2831 26.8267 48.3054 27.3005C49.3339 27.768 50.1411 28.4194 50.7271 29.2547C51.313 30.0837 51.6153 31.0374 51.634 32.1158H48.296Z" fill="#42516D"/>
</svg>
