<svg width="76" height="76" viewBox="0 0 76 76" fill="none" xmlns="http://www.w3.org/2000/svg">
<rect x="1" y="1" width="74" height="74" rx="11" fill="white" fill-opacity="0.7"/>
<rect x="1" y="1" width="74" height="74" rx="11" stroke="#7CBB15" stroke-width="2"/>
<path d="M48.0835 20.5352C49.0171 22.7207 49.663 25.0171 50.0059 27.3668C50.0647 27.77 49.8396 28.1598 49.4611 28.3104C49.3505 28.3544 49.2396 28.3977 49.1285 28.4403M27.9168 55.4648C26.9833 53.2793 26.3373 50.9829 25.9945 48.6332C25.9356 48.23 26.1607 47.8402 26.5392 47.6896C26.6498 47.6456 26.7607 47.6023 26.8718 47.5597M42.5835 30.0614C44.8247 29.7914 47.0228 29.2466 49.1285 28.4403M49.1285 28.4403C48.0786 27.2182 46.8079 26.1496 45.3335 25.2983C38.3185 21.2482 29.3486 23.6517 25.2985 30.6667C23.4386 33.888 22.9397 37.5215 23.6232 40.9016M52.4994 35.7864C52.9871 38.9673 52.4361 42.3296 50.7019 45.3333C46.6518 52.3483 37.6818 54.7518 30.6668 50.7017C29.1924 49.8505 27.9217 48.7818 26.8718 47.5597M33.4168 45.9386C31.1756 46.2086 28.9775 46.7534 26.8718 47.5597" stroke="black" stroke-width="3.66667" stroke-linecap="round" stroke-linejoin="round"/>
</svg>
