<svg width="259" height="140" viewBox="0 0 259 140" fill="none" xmlns="http://www.w3.org/2000/svg">
<path d="M0 16C0 7.16345 7.16344 0 16 0H243C251.837 0 259 7.16344 259 16V106C259 114.837 251.837 122 243 122H150.07C149.402 122 148.777 122.334 148.406 122.891L137.633 139.051C136.85 140.226 135.128 140.241 134.324 139.08L123.096 122.862C122.723 122.322 122.108 122 121.452 122H16C7.16345 122 0 114.837 0 106V16Z" fill="white"/>
<path d="M150.07 122C149.402 122 148.777 122.334 148.406 122.891L137.633 139.051L137.557 139.157C136.769 140.191 135.208 140.205 134.402 139.186L134.324 139.08L123.097 122.861C122.77 122.389 122.258 122.084 121.696 122.015L121.452 122V116C124.077 116 126.535 117.288 128.029 119.446L135.906 130.823L143.414 119.562L143.556 119.356C145.054 117.255 147.479 116 150.07 116V122ZM243 116V122H150.07V116H243ZM253 106V16C253 10.4772 248.523 6 243 6H16C10.4772 6 6 10.4772 6 16V106C6 111.523 10.4772 116 16 116V122C7.16344 122 0 114.837 0 106V16C1.48189e-06 7.16345 7.16345 3.58368e-07 16 0H243C251.837 0 259 7.16344 259 16V106L258.995 106.413C258.776 115.059 251.698 122 243 122V116C248.523 116 253 111.523 253 106ZM121.452 116V122H16V116H121.452Z" fill="#59BFFF"/>
<path d="M186.256 24.4541L185.979 34.6388H183.38L183.095 24.4541H186.256ZM184.679 39.1842C184.211 39.1842 183.808 39.0185 183.472 38.6871C183.136 38.3509 182.97 37.9484 182.975 37.4797C182.97 37.0157 183.136 36.6179 183.472 36.2865C183.808 35.955 184.211 35.7893 184.679 35.7893C185.129 35.7893 185.524 35.955 185.865 36.2865C186.206 36.6179 186.379 37.0157 186.384 37.4797C186.379 37.7922 186.296 38.0786 186.135 38.339C185.979 38.5947 185.773 38.8007 185.517 38.9569C185.262 39.1085 184.982 39.1842 184.679 39.1842Z" fill="#0077CA"/>
<path d="M172.39 43.0908C172.006 43.0908 171.646 43.06 171.31 42.9985C170.979 42.9417 170.704 42.8683 170.486 42.7783L171.168 40.5198C171.523 40.6287 171.843 40.6879 172.127 40.6974C172.416 40.7068 172.664 40.6405 172.873 40.4985C173.086 40.3564 173.258 40.115 173.391 39.7741L173.569 39.3124L169.655 28.0908H172.837L175.096 36.1022H175.209L177.489 28.0908H180.692L176.452 40.1789C176.249 40.766 175.972 41.2774 175.621 41.713C175.276 42.1533 174.838 42.4919 174.307 42.7286C173.777 42.9701 173.138 43.0908 172.39 43.0908Z" fill="#0077CA"/>
<path d="M161.606 38.9999V28.0908H164.54V29.9942H164.653C164.852 29.3171 165.186 28.8058 165.655 28.4601C166.123 28.1098 166.663 27.9346 167.274 27.9346C167.426 27.9346 167.589 27.944 167.764 27.963C167.939 27.9819 168.093 28.008 168.226 28.0411V30.7258C168.084 30.6831 167.887 30.6453 167.636 30.6121C167.385 30.579 167.156 30.5624 166.947 30.5624C166.502 30.5624 166.105 30.6595 165.754 30.8536C165.409 31.043 165.134 31.3081 164.93 31.6491C164.731 31.99 164.632 32.383 164.632 32.828V38.9999H161.606Z" fill="#0077CA"/>
<path d="M153.465 43.3185C152.485 43.3185 151.645 43.1836 150.944 42.9137C150.248 42.6486 149.694 42.2863 149.282 41.8271C148.87 41.3678 148.602 40.8517 148.479 40.2788L151.278 39.9023C151.363 40.1201 151.498 40.3237 151.682 40.5131C151.867 40.7025 152.111 40.854 152.414 40.9677C152.722 41.0861 153.096 41.1452 153.536 41.1452C154.194 41.1452 154.736 40.9843 155.163 40.6623C155.593 40.3451 155.809 39.8124 155.809 39.0643V37.0685H155.681C155.548 37.3716 155.35 37.658 155.084 37.9279C154.819 38.1978 154.478 38.418 154.062 38.5884C153.645 38.7589 153.148 38.8441 152.57 38.8441C151.751 38.8441 151.005 38.6547 150.333 38.2759C149.665 37.8924 149.133 37.3076 148.735 36.5217C148.342 35.7309 148.146 34.7319 148.146 33.5245C148.146 32.2887 148.347 31.2565 148.749 30.4279C149.152 29.5993 149.687 28.979 150.354 28.5671C151.027 28.1552 151.763 27.9492 152.563 27.9492C153.174 27.9492 153.685 28.0534 154.097 28.2617C154.509 28.4653 154.841 28.721 155.092 29.0288C155.347 29.3318 155.544 29.6301 155.681 29.9236H155.795V28.0913H158.799V39.1069C158.799 40.0349 158.572 40.8114 158.117 41.4364C157.663 42.0614 157.033 42.5302 156.228 42.8427C155.428 43.1599 154.507 43.3185 153.465 43.3185ZM153.529 36.5714C154.017 36.5714 154.429 36.4506 154.765 36.2092C155.106 35.9629 155.366 35.6126 155.546 35.158C155.731 34.6987 155.823 34.1495 155.823 33.5103C155.823 32.8711 155.733 32.3171 155.553 31.8484C155.373 31.3749 155.113 31.0079 154.772 30.7475C154.431 30.4871 154.017 30.3569 153.529 30.3569C153.032 30.3569 152.613 30.4918 152.272 30.7617C151.931 31.0269 151.673 31.3962 151.498 31.8697C151.323 32.3432 151.235 32.89 151.235 33.5103C151.235 34.14 151.323 34.6845 151.498 35.1438C151.678 35.5984 151.936 35.9511 152.272 36.2021C152.613 36.4483 153.032 36.5714 153.529 36.5714Z" fill="#0077CA"/>
<path d="M138.735 32.6935V39.0004H135.709V28.0913H138.593V30.016H138.72C138.962 29.3815 139.367 28.8796 139.935 28.5103C140.503 28.1362 141.192 27.9492 142.002 27.9492C142.759 27.9492 143.42 28.1149 143.983 28.4464C144.547 28.7778 144.985 29.2513 145.297 29.8668C145.61 30.4776 145.766 31.2068 145.766 32.0543V39.0004H142.74V32.5941C142.745 31.9265 142.575 31.4057 142.229 31.0316C141.883 30.6528 141.407 30.4634 140.801 30.4634C140.394 30.4634 140.034 30.551 139.722 30.7262C139.414 30.9014 139.173 31.1571 138.997 31.4933C138.827 31.8247 138.739 32.2248 138.735 32.6935Z" fill="#0077CA"/>
<path d="M129.863 34.355V28.0908H132.888V38.9999H129.984V37.0184H129.87C129.624 37.6576 129.214 38.1713 128.641 38.5596C128.073 38.9478 127.379 39.142 126.56 39.142C125.831 39.142 125.19 38.9762 124.636 38.6448C124.082 38.3134 123.648 37.8422 123.336 37.2314C123.028 36.6207 122.872 35.8891 122.867 35.0368V28.0908H125.893V34.4971C125.897 35.141 126.07 35.65 126.411 36.0241C126.752 36.3981 127.209 36.5851 127.782 36.5851C128.147 36.5851 128.487 36.5023 128.805 36.3366C129.122 36.1661 129.378 35.9152 129.572 35.5837C129.771 35.2523 129.868 34.8427 129.863 34.355Z" fill="#0077CA"/>
<path d="M107.603 38.9996V24.4541H110.678V30.4555H116.921V24.4541H119.989V38.9996H116.921V32.991H110.678V38.9996H107.603Z" fill="#0077CA"/>
<path d="M83.875 39.0004V28.0913H86.7585V30.016H86.8864C87.1136 29.3768 87.4924 28.8725 88.0227 28.5032C88.553 28.1339 89.1875 27.9492 89.9261 27.9492C90.6742 27.9492 91.3111 28.1362 91.8366 28.5103C92.3622 28.8796 92.7126 29.3815 92.8878 30.016H93.0014C93.224 29.391 93.6264 28.8915 94.2088 28.5174C94.7959 28.1386 95.4896 27.9492 96.2898 27.9492C97.3078 27.9492 98.134 28.2736 98.7685 28.9222C99.4077 29.5662 99.7273 30.48 99.7273 31.6637V39.0004H96.7088V32.2603C96.7088 31.6542 96.5478 31.1997 96.2259 30.8967C95.9039 30.5936 95.5014 30.4421 95.0185 30.4421C94.4692 30.4421 94.0407 30.6173 93.733 30.9677C93.4252 31.3133 93.2713 31.7702 93.2713 32.3384V39.0004H90.3381V32.1964C90.3381 31.6613 90.1842 31.2352 89.8764 30.918C89.5734 30.6007 89.1733 30.4421 88.6761 30.4421C88.34 30.4421 88.0369 30.5273 87.767 30.6978C87.5019 30.8635 87.2912 31.0979 87.1349 31.4009C86.9787 31.6992 86.9006 32.0496 86.9006 32.4521V39.0004H83.875Z" fill="#0077CA"/>
<path d="M81.2411 24.4541V29.9797H79.082V24.4541H81.2411Z" fill="#0077CA"/>
<path d="M76.422 24.4541V38.9996H73.3467V24.4541H76.422Z" fill="#0077CA"/>
<path d="M210.188 81.9092L209.977 91.1521H207.919L207.715 81.9092H210.188ZM208.948 95.1407C208.56 95.1407 208.228 95.0043 207.951 94.7316C207.678 94.4589 207.542 94.1265 207.542 93.7345C207.542 93.3509 207.678 93.0228 207.951 92.7501C208.228 92.4774 208.56 92.341 208.948 92.341C209.328 92.341 209.656 92.4774 209.933 92.7501C210.214 93.0228 210.354 93.3509 210.354 93.7345C210.354 93.9944 210.288 94.2309 210.156 94.444C210.029 94.6571 209.858 94.8275 209.645 94.9553C209.436 95.0789 209.204 95.1407 208.948 95.1407Z" fill="#42516D"/>
<path d="M198.341 89.2469V94.9997H196.027V85.1815H198.239V86.8499H198.354C198.58 86.3002 198.94 85.8634 199.434 85.5395C199.933 85.2156 200.549 85.0537 201.282 85.0537C201.959 85.0537 202.549 85.1986 203.052 85.4884C203.559 85.7781 203.951 86.1979 204.228 86.7476C204.51 87.2973 204.648 87.9642 204.644 88.7483V94.9997H202.33V89.1063C202.33 88.45 202.159 87.9365 201.819 87.5658C201.482 87.195 201.015 87.0097 200.419 87.0097C200.014 87.0097 199.654 87.0992 199.338 87.2781C199.027 87.4529 198.782 87.7064 198.603 88.0388C198.429 88.3712 198.341 88.7739 198.341 89.2469Z" fill="#42516D"/>
<path d="M188.157 95.1979C187.534 95.1979 186.974 95.0871 186.475 94.8655C185.981 94.6396 185.589 94.3073 185.299 93.8683C185.014 93.4294 184.871 92.8882 184.871 92.2448C184.871 91.6908 184.973 91.2327 185.178 90.8705C185.382 90.5083 185.662 90.2185 186.015 90.0012C186.369 89.7838 186.767 89.6198 187.211 89.509C187.658 89.3939 188.12 89.3108 188.598 89.2597C189.173 89.2 189.64 89.1468 189.998 89.0999C190.355 89.0487 190.615 88.972 190.777 88.8698C190.944 88.7632 191.027 88.5992 191.027 88.3776V88.3392C191.027 87.8577 190.884 87.4848 190.598 87.2206C190.313 86.9564 189.902 86.8243 189.365 86.8243C188.798 86.8243 188.348 86.9479 188.016 87.195C187.688 87.4422 187.466 87.7341 187.351 88.0708L185.191 87.7639C185.361 87.1673 185.642 86.6688 186.034 86.2682C186.426 85.8634 186.906 85.5608 187.473 85.3605C188.039 85.156 188.666 85.0537 189.352 85.0537C189.825 85.0537 190.296 85.1091 190.765 85.2199C191.233 85.3307 191.662 85.5139 192.049 85.7696C192.437 86.021 192.748 86.3641 192.983 86.7987C193.221 87.2334 193.341 87.7767 193.341 88.4287V94.9997H191.116V93.651H191.039C190.899 93.9237 190.701 94.1794 190.445 94.4181C190.194 94.6524 189.876 94.8421 189.493 94.9869C189.113 95.1276 188.668 95.1979 188.157 95.1979ZM188.757 93.4976C189.222 93.4976 189.625 93.406 189.966 93.2227C190.306 93.0352 190.569 92.7881 190.752 92.4813C190.939 92.1744 191.033 91.8399 191.033 91.4777V90.3208C190.961 90.3804 190.837 90.4358 190.662 90.4869C190.492 90.5381 190.3 90.5828 190.087 90.6212C189.874 90.6595 189.663 90.6936 189.454 90.7235C189.245 90.7533 189.064 90.7789 188.911 90.8002C188.566 90.847 188.257 90.9237 187.984 91.0303C187.711 91.1368 187.496 91.286 187.338 91.4777C187.181 91.6652 187.102 91.9081 187.102 92.2064C187.102 92.6325 187.257 92.9543 187.569 93.1716C187.88 93.3889 188.276 93.4976 188.757 93.4976Z" fill="#42516D"/>
<path d="M178.866 95.1915C177.886 95.1915 177.044 94.9763 176.341 94.5459C175.642 94.1155 175.103 93.521 174.724 92.7625C174.349 91.9997 174.161 91.1219 174.161 90.129C174.161 89.1318 174.353 88.2519 174.736 87.4891C175.12 86.722 175.661 86.1254 176.36 85.6993C177.063 85.2689 177.894 85.0537 178.853 85.0537C179.65 85.0537 180.355 85.2007 180.969 85.4948C181.587 85.7845 182.079 86.1958 182.445 86.7284C182.812 87.2568 183.021 87.8747 183.072 88.5821H180.86C180.771 88.1091 180.557 87.7149 180.221 87.3996C179.888 87.08 179.443 86.9202 178.885 86.9202C178.412 86.9202 177.996 87.048 177.638 87.3037C177.28 87.5551 177.001 87.9173 176.801 88.3904C176.605 88.8634 176.507 89.4301 176.507 90.0906C176.507 90.7597 176.605 91.335 176.801 91.8165C176.997 92.2938 177.272 92.6624 177.626 92.9223C177.984 93.178 178.403 93.3058 178.885 93.3058C179.226 93.3058 179.53 93.2419 179.799 93.1141C180.072 92.982 180.3 92.7923 180.483 92.5452C180.666 92.298 180.792 91.9976 180.86 91.6439H183.072C183.016 92.3385 182.812 92.9543 182.458 93.4912C182.104 94.0239 181.623 94.4415 181.013 94.7441C180.404 95.0423 179.688 95.1915 178.866 95.1915Z" fill="#42516D"/>
<path d="M160.673 89.2472V95.0001H158.359V81.9092H160.622V86.8502H160.737C160.967 86.2963 161.323 85.8595 161.805 85.5399C162.29 85.216 162.908 85.0541 163.658 85.0541C164.34 85.0541 164.935 85.1968 165.442 85.4823C165.949 85.7678 166.341 86.1855 166.618 86.7352C166.899 87.2849 167.04 87.9561 167.04 88.7487V95.0001H164.726V89.1066C164.726 88.4461 164.555 87.9326 164.214 87.5661C163.878 87.1954 163.405 87.01 162.795 87.01C162.386 87.01 162.02 87.0995 161.696 87.2785C161.376 87.4532 161.125 87.7068 160.942 88.0392C160.763 88.3715 160.673 88.7742 160.673 89.2472Z" fill="#42516D"/>
<path d="M155.88 87.7767L153.771 88.0068C153.711 87.7938 153.607 87.5935 153.458 87.406C153.313 87.2185 153.117 87.0672 152.87 86.9521C152.622 86.8371 152.32 86.7796 151.962 86.7796C151.48 86.7796 151.075 86.884 150.747 87.0928C150.423 87.3016 150.264 87.5722 150.268 87.9046C150.264 88.1901 150.368 88.4223 150.581 88.6013C150.798 88.7803 151.156 88.9273 151.655 89.0423L153.33 89.4003C154.259 89.6006 154.949 89.9181 155.401 90.3527C155.857 90.7874 156.087 91.3563 156.091 92.0594C156.087 92.6773 155.906 93.2227 155.548 93.6958C155.194 94.1645 154.702 94.531 154.071 94.7952C153.441 95.0594 152.716 95.1915 151.898 95.1915C150.696 95.1915 149.729 94.9401 148.996 94.4372C148.263 93.9301 147.826 93.2249 147.686 92.3215L149.942 92.1041C150.044 92.5473 150.262 92.8818 150.594 93.1077C150.926 93.3335 151.359 93.4465 151.892 93.4465C152.441 93.4465 152.882 93.3335 153.215 93.1077C153.551 92.8818 153.72 92.6027 153.72 92.2703C153.72 91.9891 153.611 91.7568 153.394 91.5736C153.181 91.3904 152.848 91.2497 152.396 91.1517L150.722 90.8002C149.78 90.6041 149.083 90.2739 148.632 89.8094C148.18 89.3406 147.956 88.7483 147.96 88.0324C147.956 87.4273 148.12 86.9031 148.453 86.46C148.789 86.0125 149.256 85.6673 149.852 85.4244C150.453 85.1773 151.146 85.0537 151.93 85.0537C153.08 85.0537 153.986 85.2987 154.646 85.7888C155.311 86.2789 155.722 86.9415 155.88 87.7767Z" fill="#42516D"/>
<path d="M143.067 95.0001V85.1819H145.381V95.0001H143.067ZM144.23 83.7884C143.864 83.7884 143.548 83.667 143.284 83.4241C143.02 83.1769 142.888 82.8808 142.888 82.5356C142.888 82.1862 143.02 81.89 143.284 81.6471C143.548 81.3999 143.864 81.2764 144.23 81.2764C144.601 81.2764 144.916 81.3999 145.176 81.6471C145.44 81.89 145.572 82.1862 145.572 82.5356C145.572 82.8808 145.44 83.1769 145.176 83.4241C144.916 83.667 144.601 83.7884 144.23 83.7884Z" fill="#42516D"/>
<path d="M140.895 85.1823V86.972H135.091V85.1823H140.895ZM136.542 95.0004V84.2554C136.542 83.5949 136.678 83.0452 136.951 82.6063C137.228 82.1673 137.599 81.8392 138.063 81.6219C138.528 81.4046 139.043 81.2959 139.61 81.2959C140.011 81.2959 140.366 81.3279 140.677 81.3918C140.989 81.4557 141.219 81.5132 141.368 81.5644L140.908 83.3541C140.81 83.3243 140.686 83.2945 140.537 83.2646C140.388 83.2306 140.221 83.2135 140.038 83.2135C139.608 83.2135 139.303 83.3179 139.124 83.5267C138.949 83.7313 138.862 84.0253 138.862 84.4088V95.0004H136.542Z" fill="#42516D"/>
<path d="M123.226 95.1979C122.604 95.1979 122.043 95.0871 121.545 94.8655C121.051 94.6396 120.658 94.3073 120.369 93.8683C120.083 93.4294 119.94 92.8882 119.94 92.2448C119.94 91.6908 120.043 91.2327 120.247 90.8705C120.452 90.5083 120.731 90.2185 121.085 90.0012C121.438 89.7838 121.837 89.6198 122.28 89.509C122.727 89.3939 123.19 89.3108 123.667 89.2597C124.242 89.2 124.709 89.1468 125.067 89.0999C125.425 89.0487 125.685 88.972 125.847 88.8698C126.013 88.7632 126.096 88.5992 126.096 88.3776V88.3392C126.096 87.8577 125.953 87.4848 125.668 87.2206C125.382 86.9564 124.971 86.8243 124.434 86.8243C123.867 86.8243 123.418 86.9479 123.085 87.195C122.757 87.4422 122.536 87.7341 122.421 88.0708L120.26 87.7639C120.43 87.1673 120.712 86.6688 121.104 86.2682C121.496 85.8634 121.975 85.5608 122.542 85.3605C123.109 85.156 123.735 85.0537 124.421 85.0537C124.894 85.0537 125.365 85.1091 125.834 85.2199C126.303 85.3307 126.731 85.5139 127.119 85.7696C127.506 86.021 127.818 86.3641 128.052 86.7987C128.291 87.2334 128.41 87.7767 128.41 88.4287V94.9997H126.185V93.651H126.109C125.968 93.9237 125.77 94.1794 125.514 94.4181C125.263 94.6524 124.945 94.8421 124.562 94.9869C124.183 95.1276 123.737 95.1979 123.226 95.1979ZM123.827 93.4976C124.291 93.4976 124.694 93.406 125.035 93.2227C125.376 93.0352 125.638 92.7881 125.821 92.4813C126.009 92.1744 126.102 91.8399 126.102 91.4777V90.3208C126.03 90.3804 125.906 90.4358 125.732 90.4869C125.561 90.5381 125.369 90.5828 125.156 90.6212C124.943 90.6595 124.732 90.6936 124.524 90.7235C124.315 90.7533 124.134 90.7789 123.98 90.8002C123.635 90.847 123.326 90.9237 123.053 91.0303C122.781 91.1368 122.565 91.286 122.408 91.4777C122.25 91.6652 122.171 91.9081 122.171 92.2064C122.171 92.6325 122.327 92.9543 122.638 93.1716C122.949 93.3889 123.345 93.4976 123.827 93.4976Z" fill="#42516D"/>
<path d="M106.283 98.6816C105.968 98.6816 105.676 98.6561 105.408 98.6049C105.144 98.5581 104.933 98.5027 104.775 98.4387L105.312 96.6362C105.649 96.7342 105.949 96.7811 106.213 96.7768C106.477 96.7726 106.71 96.6895 106.91 96.5275C107.114 96.3699 107.287 96.1056 107.428 95.7349L107.626 95.2044L104.065 85.1816H106.52L108.783 92.5964H108.885L111.154 85.1816H113.615L109.684 96.1887C109.501 96.7086 109.258 97.1539 108.955 97.5247C108.653 97.8997 108.282 98.1852 107.843 98.3812C107.408 98.5815 106.889 98.6816 106.283 98.6816Z" fill="#42516D"/>
<path d="M99.792 90.8706V85.1816H102.106V94.9998H99.8623V93.2548H99.76C99.5384 93.8045 99.1741 94.2541 98.667 94.6035C98.1642 94.953 97.5441 95.1277 96.8069 95.1277C96.1634 95.1277 95.5946 94.9849 95.1002 94.6994C94.6102 94.4096 94.2266 93.9899 93.9497 93.4402C93.6727 92.8862 93.5342 92.2172 93.5342 91.4331V85.1816H95.8481V91.0751C95.8481 91.6973 96.0186 92.1916 96.3595 92.5581C96.7004 92.9245 97.1478 93.1078 97.7018 93.1078C98.0427 93.1078 98.373 93.0247 98.6926 92.8585C99.0122 92.6923 99.2742 92.4451 99.4788 92.117C99.6876 91.7846 99.792 91.3691 99.792 90.8706Z" fill="#42516D"/>
<path d="M81.9385 95.0001V81.9092H84.2524V86.8055H84.3483C84.4676 86.5668 84.6359 86.3133 84.8532 86.0448C85.0706 85.7721 85.3646 85.5399 85.7354 85.3481C86.1061 85.1521 86.5791 85.0541 87.1544 85.0541C87.9129 85.0541 88.5969 85.248 89.2062 85.6357C89.8199 86.0193 90.3057 86.5882 90.6636 87.3424C91.0258 88.0924 91.2069 89.0129 91.2069 90.1038C91.2069 91.1819 91.0301 92.0981 90.6764 92.8524C90.3227 93.6066 89.8412 94.1819 89.2318 94.5782C88.6224 94.9745 87.9321 95.1727 87.1608 95.1727C86.5983 95.1727 86.1317 95.0789 85.7609 94.8914C85.3902 94.7039 85.0919 94.4781 84.866 94.2139C84.6444 93.9454 84.4719 93.6919 84.3483 93.4532H84.2141V95.0001H81.9385ZM84.2077 90.091C84.2077 90.7259 84.2971 91.282 84.4761 91.7593C84.6594 92.2366 84.9214 92.6095 85.2623 92.8779C85.6075 93.1421 86.0251 93.2742 86.5152 93.2742C87.0265 93.2742 87.4548 93.1379 87.8 92.8651C88.1452 92.5882 88.4051 92.211 88.5798 91.7338C88.7588 91.2522 88.8483 90.7046 88.8483 90.091C88.8483 89.4816 88.7609 88.9404 88.5862 88.4674C88.4115 87.9944 88.1515 87.6237 87.8064 87.3552C87.4612 87.0867 87.0308 86.9525 86.5152 86.9525C86.0209 86.9525 85.6011 87.0825 85.256 87.3424C84.9108 87.6024 84.6487 87.9667 84.4697 88.4355C84.295 88.9042 84.2077 89.4561 84.2077 90.091Z" fill="#42516D"/>
<path d="M70.328 95.1915C69.3437 95.1915 68.4935 94.9869 67.7776 94.5779C67.066 94.1645 66.5184 93.5807 66.1349 92.8264C65.7513 92.0679 65.5596 91.1752 65.5596 90.1482C65.5596 89.1382 65.7513 88.2519 66.1349 87.4891C66.5226 86.722 67.0638 86.1254 67.7584 85.6993C68.453 85.2689 69.2691 85.0537 70.2066 85.0537C70.8117 85.0537 71.3827 85.1517 71.9197 85.3477C72.4609 85.5395 72.9381 85.8378 73.3515 86.2426C73.7691 86.6475 74.0972 87.1631 74.3358 87.7895C74.5745 88.4117 74.6938 89.1531 74.6938 90.0139V90.7235H66.6462V89.1638H72.4758C72.4715 88.7206 72.3756 88.3264 72.1881 87.9813C72.0006 87.6318 71.7385 87.357 71.4019 87.1567C71.0695 86.9564 70.6817 86.8563 70.2385 86.8563C69.7655 86.8563 69.3501 86.9713 68.9921 87.2014C68.6341 87.4273 68.355 87.7256 68.1547 88.0963C67.9587 88.4628 67.8586 88.8655 67.8543 89.3044V90.6659C67.8543 91.237 67.9587 91.727 68.1675 92.1361C68.3763 92.5409 68.6682 92.852 69.0432 93.0693C69.4182 93.2824 69.8572 93.3889 70.36 93.3889C70.6966 93.3889 71.0013 93.3421 71.2741 93.2483C71.5468 93.1503 71.7833 93.0075 71.9836 92.82C72.1839 92.6325 72.3351 92.4003 72.4374 92.1233L74.5979 92.3662C74.4616 92.9372 74.2016 93.4358 73.8181 93.8619C73.4388 94.2838 72.953 94.6119 72.3607 94.8463C71.7684 95.0764 71.0908 95.1915 70.328 95.1915Z" fill="#42516D"/>
<path d="M49.4668 94.9997V85.1815H51.6784V86.8499H51.7935C51.998 86.2874 52.3368 85.8485 52.8098 85.5331C53.2828 85.2135 53.8475 85.0537 54.5037 85.0537C55.1685 85.0537 55.7289 85.2156 56.1848 85.5395C56.6451 85.8591 56.9689 86.2959 57.1564 86.8499H57.2587C57.476 86.3044 57.8425 85.8698 58.3581 85.5459C58.878 85.2178 59.4938 85.0537 60.2054 85.0537C61.1088 85.0537 61.8461 85.3392 62.4171 85.9102C62.9881 86.4813 63.2736 87.3144 63.2736 88.4095V94.9997H60.9533V88.7675C60.9533 88.1581 60.7914 87.7128 60.4675 87.4315C60.1436 87.146 59.7473 87.0033 59.2786 87.0033C58.7203 87.0033 58.2836 87.178 57.9682 87.5274C57.6571 87.8726 57.5016 88.3222 57.5016 88.8762V94.9997H55.2324V88.6716C55.2324 88.1645 55.079 87.7597 54.7722 87.4571C54.4696 87.1546 54.0733 87.0033 53.5833 87.0033C53.2509 87.0033 52.9483 87.0885 52.6756 87.259C52.4029 87.4252 52.1855 87.6617 52.0236 87.9685C51.8617 88.271 51.7807 88.6247 51.7807 89.0296V94.9997H49.4668Z" fill="#42516D"/>
<path d="M223.51 74.6816V61.1816H225.785V62.8051H225.92C226.039 62.5665 226.207 62.3129 226.425 62.0445C226.642 61.7718 226.936 61.5395 227.307 61.3477C227.677 61.1517 228.15 61.0537 228.726 61.0537C229.484 61.0537 230.168 61.2476 230.778 61.6354C231.391 62.0189 231.877 62.5878 232.235 63.3421C232.597 64.0921 232.778 65.0125 232.778 66.1034C232.778 67.1816 232.601 68.0977 232.248 68.852C231.894 69.6063 231.412 70.1816 230.803 70.5779C230.194 70.9742 229.503 71.1723 228.732 71.1723C228.17 71.1723 227.703 71.0786 227.332 70.8911C226.961 70.7036 226.663 70.4777 226.437 70.2135C226.216 69.945 226.043 69.6915 225.92 69.4529H225.824V74.6816H223.51ZM225.779 66.0906C225.779 66.7256 225.868 67.2817 226.047 67.759C226.231 68.2362 226.493 68.6091 226.834 68.8776C227.179 69.1418 227.596 69.2739 228.086 69.2739C228.598 69.2739 229.026 69.1375 229.371 68.8648C229.716 68.5878 229.976 68.2107 230.151 67.7334C230.33 67.2519 230.42 66.7043 230.42 66.0906C230.42 65.4813 230.332 64.9401 230.158 64.4671C229.983 63.9941 229.723 63.6233 229.378 63.3548C229.032 63.0864 228.602 62.9521 228.086 62.9521C227.592 62.9521 227.172 63.0821 226.827 63.3421C226.482 63.602 226.22 63.9664 226.041 64.4351C225.866 64.9039 225.779 65.4557 225.779 66.0906Z" fill="#42516D"/>
<path d="M220.771 57.9092V71.0001H218.457V57.9092H220.771Z" fill="#42516D"/>
<path d="M211.773 71.1915C210.789 71.1915 209.939 70.9869 209.223 70.5779C208.511 70.1645 207.964 69.5807 207.58 68.8264C207.197 68.0679 207.005 67.1752 207.005 66.1482C207.005 65.1382 207.197 64.2519 207.58 63.4891C207.968 62.722 208.509 62.1254 209.204 61.6993C209.898 61.2689 210.714 61.0537 211.652 61.0537C212.257 61.0537 212.828 61.1517 213.365 61.3477C213.906 61.5395 214.383 61.8378 214.797 62.2426C215.214 62.6475 215.543 63.1631 215.781 63.7895C216.02 64.4117 216.139 65.1531 216.139 66.0139V66.7235H208.092V65.1638H213.921C213.917 64.7206 213.821 64.3264 213.633 63.9813C213.446 63.6318 213.184 63.357 212.847 63.1567C212.515 62.9564 212.127 62.8563 211.684 62.8563C211.211 62.8563 210.795 62.9713 210.437 63.2014C210.079 63.4273 209.8 63.7256 209.6 64.0963C209.404 64.4628 209.304 64.8655 209.3 65.3044V66.6659C209.3 67.2369 209.404 67.727 209.613 68.1361C209.822 68.5409 210.114 68.852 210.489 69.0693C210.864 69.2824 211.302 69.3889 211.805 69.3889C212.142 69.3889 212.447 69.3421 212.719 69.2483C212.992 69.1503 213.229 69.0075 213.429 68.82C213.629 68.6325 213.78 68.4003 213.883 68.1233L216.043 68.3662C215.907 68.9372 215.647 69.4358 215.263 69.8619C214.884 70.2838 214.398 70.6119 213.806 70.8463C213.214 71.0764 212.536 71.1915 211.773 71.1915Z" fill="#42516D"/>
<path d="M198.341 65.2472V71.0001H196.027V57.9092H198.29V62.8502H198.405C198.635 62.2963 198.991 61.8595 199.473 61.5399C199.958 61.216 200.576 61.0541 201.326 61.0541C202.008 61.0541 202.603 61.1968 203.11 61.4823C203.617 61.7678 204.009 62.1855 204.286 62.7352C204.567 63.2849 204.708 63.9561 204.708 64.7487V71.0001H202.394V65.1066C202.394 64.4461 202.223 63.9326 201.882 63.5661C201.546 63.1954 201.073 63.01 200.463 63.01C200.054 63.01 199.688 63.0995 199.364 63.2785C199.044 63.4532 198.793 63.7068 198.61 64.0392C198.431 64.3715 198.341 64.7742 198.341 65.2472Z" fill="#42516D"/>
<path d="M184.174 71.1915C183.215 71.1915 182.385 70.9806 181.681 70.5587C180.978 70.1368 180.433 69.5466 180.045 68.7881C179.661 68.0296 179.47 67.1432 179.47 66.129C179.47 65.1148 179.661 64.2263 180.045 63.4635C180.433 62.7007 180.978 62.1084 181.681 61.6865C182.385 61.2646 183.215 61.0537 184.174 61.0537C185.133 61.0537 185.964 61.2646 186.667 61.6865C187.37 62.1084 187.914 62.7007 188.297 63.4635C188.685 64.2263 188.879 65.1148 188.879 66.129C188.879 67.1432 188.685 68.0296 188.297 68.7881C187.914 69.5466 187.37 70.1368 186.667 70.5587C185.964 70.9806 185.133 71.1915 184.174 71.1915ZM184.187 69.3378C184.707 69.3378 185.142 69.195 185.491 68.9095C185.84 68.6198 186.1 68.232 186.271 67.7462C186.446 67.2604 186.533 66.7192 186.533 66.1226C186.533 65.5218 186.446 64.9784 186.271 64.4926C186.1 64.0026 185.84 63.6127 185.491 63.3229C185.142 63.0331 184.707 62.8882 184.187 62.8882C183.654 62.8882 183.211 63.0331 182.858 63.3229C182.508 63.6127 182.246 64.0026 182.071 64.4926C181.901 64.9784 181.816 65.5218 181.816 66.1226C181.816 66.7192 181.901 67.2604 182.071 67.7462C182.246 68.232 182.508 68.6198 182.858 68.9095C183.211 69.195 183.654 69.3378 184.187 69.3378Z" fill="#42516D"/>
<path d="M177.702 61.1814V62.9711H172.058V61.1814H177.702ZM173.451 58.8291H175.765V68.0464C175.765 68.3575 175.812 68.5961 175.906 68.7623C176.004 68.9243 176.131 69.0351 176.289 69.0947C176.447 69.1544 176.622 69.1842 176.813 69.1842C176.958 69.1842 177.09 69.1736 177.21 69.1523C177.333 69.1309 177.427 69.1118 177.491 69.0947L177.881 70.9037C177.757 70.9463 177.58 70.9932 177.35 71.0443C177.124 71.0954 176.847 71.1253 176.519 71.1338C175.94 71.1508 175.418 71.0635 174.953 70.8717C174.489 70.6757 174.12 70.3731 173.847 69.964C173.579 69.555 173.447 69.0436 173.451 68.43V58.8291Z" fill="#42516D"/>
<path d="M165.495 63.7767L163.386 64.0068C163.326 63.7938 163.222 63.5935 163.073 63.406C162.928 63.2185 162.732 63.0672 162.485 62.9521C162.238 62.8371 161.935 62.7796 161.577 62.7796C161.096 62.7796 160.691 62.884 160.363 63.0928C160.039 63.3016 159.879 63.5722 159.883 63.9046C159.879 64.1901 159.983 64.4223 160.196 64.6013C160.414 64.7803 160.772 64.9273 161.27 65.0423L162.945 65.4003C163.874 65.6006 164.564 65.9181 165.016 66.3527C165.472 66.7874 165.702 67.3563 165.706 68.0594C165.702 68.6773 165.521 69.2227 165.163 69.6958C164.809 70.1645 164.317 70.531 163.686 70.7952C163.056 71.0594 162.331 71.1915 161.513 71.1915C160.311 71.1915 159.344 70.9401 158.611 70.4372C157.878 69.9301 157.441 69.2249 157.301 68.3215L159.557 68.1041C159.659 68.5473 159.877 68.8818 160.209 69.1077C160.542 69.3335 160.974 69.4465 161.507 69.4465C162.056 69.4465 162.498 69.3335 162.83 69.1077C163.167 68.8818 163.335 68.6027 163.335 68.2703C163.335 67.9891 163.226 67.7568 163.009 67.5736C162.796 67.3904 162.463 67.2497 162.012 67.1517L160.337 66.8002C159.395 66.6041 158.699 66.2739 158.247 65.8094C157.795 65.3406 157.571 64.7483 157.576 64.0324C157.571 63.4273 157.735 62.9031 158.068 62.46C158.404 62.0125 158.871 61.6673 159.468 61.4244C160.069 61.1773 160.761 61.0537 161.545 61.0537C162.696 61.0537 163.601 61.2987 164.262 61.7888C164.926 62.2789 165.338 62.9415 165.495 63.7767Z" fill="#42516D"/>
<path d="M141.221 70.9997V61.1816H143.432V62.8499H143.547C143.752 62.2874 144.091 61.8485 144.564 61.5331C145.037 61.2135 145.601 61.0537 146.258 61.0537C146.922 61.0537 147.483 61.2156 147.939 61.5395C148.399 61.8591 148.723 62.2959 148.91 62.8499H149.013C149.23 62.3044 149.596 61.8698 150.112 61.5459C150.632 61.2178 151.248 61.0537 151.959 61.0537C152.863 61.0537 153.6 61.3392 154.171 61.9102C154.742 62.4813 155.028 63.3144 155.028 64.4095V70.9997H152.707V64.7675C152.707 64.1581 152.545 63.7128 152.221 63.4316C151.898 63.146 151.501 63.0033 151.033 63.0033C150.474 63.0033 150.037 63.178 149.722 63.5274C149.411 63.8726 149.256 64.3222 149.256 64.8762V70.9997H146.986V64.6716C146.986 64.1645 146.833 63.7597 146.526 63.4571C146.224 63.1546 145.827 63.0033 145.337 63.0033C145.005 63.0033 144.702 63.0885 144.43 63.259C144.157 63.4252 143.939 63.6617 143.778 63.9685C143.616 64.271 143.535 64.6247 143.535 65.0296V70.9997H141.221Z" fill="#42516D"/>
<path d="M134.538 71.1915C133.554 71.1915 132.703 70.9869 131.988 70.5779C131.276 70.1645 130.728 69.5807 130.345 68.8264C129.961 68.0679 129.77 67.1752 129.77 66.1482C129.77 65.1382 129.961 64.2519 130.345 63.4891C130.733 62.722 131.274 62.1254 131.968 61.6993C132.663 61.2689 133.479 61.0537 134.417 61.0537C135.022 61.0537 135.593 61.1517 136.13 61.3477C136.671 61.5395 137.148 61.8378 137.561 62.2426C137.979 62.6475 138.307 63.1631 138.546 63.7895C138.784 64.4117 138.904 65.1531 138.904 66.0139V66.7235H130.856V65.1638H136.686C136.681 64.7206 136.586 64.3264 136.398 63.9813C136.211 63.6318 135.949 63.357 135.612 63.1567C135.279 62.9564 134.892 62.8563 134.449 62.8563C133.975 62.8563 133.56 62.9713 133.202 63.2014C132.844 63.4273 132.565 63.7256 132.365 64.0963C132.169 64.4628 132.069 64.8655 132.064 65.3044V66.6659C132.064 67.2369 132.169 67.727 132.377 68.1361C132.586 68.5409 132.878 68.852 133.253 69.0693C133.628 69.2824 134.067 69.3889 134.57 69.3889C134.907 69.3889 135.211 69.3421 135.484 69.2483C135.757 69.1503 135.993 69.0075 136.194 68.82C136.394 68.6325 136.545 68.4003 136.647 68.1233L138.808 68.3662C138.672 68.9372 138.412 69.4358 138.028 69.8619C137.649 70.2838 137.163 70.6119 136.571 70.8463C135.978 71.0764 135.301 71.1915 134.538 71.1915Z" fill="#42516D"/>
<path d="M128.002 61.1814V62.9711H122.357V61.1814H128.002ZM123.751 58.8291H126.065V68.0464C126.065 68.3575 126.112 68.5961 126.205 68.7623C126.303 68.9243 126.431 69.0351 126.589 69.0947C126.747 69.1544 126.921 69.1842 127.113 69.1842C127.258 69.1842 127.39 69.1736 127.509 69.1523C127.633 69.1309 127.727 69.1118 127.791 69.0947L128.181 70.9037C128.057 70.9463 127.88 70.9932 127.65 71.0443C127.424 71.0954 127.147 71.1253 126.819 71.1338C126.24 71.1508 125.718 71.0635 125.253 70.8717C124.789 70.6757 124.42 70.3731 124.147 69.964C123.879 69.555 123.747 69.0436 123.751 68.43V58.8291Z" fill="#42516D"/>
<path d="M118.045 71.0001V61.1819H120.359V71.0001H118.045ZM119.209 59.7884C118.842 59.7884 118.527 59.667 118.263 59.4241C117.998 59.1769 117.866 58.8808 117.866 58.5356C117.866 58.1862 117.998 57.89 118.263 57.6471C118.527 57.3999 118.842 57.2764 119.209 57.2764C119.579 57.2764 119.895 57.3999 120.155 57.6471C120.419 57.89 120.551 58.1862 120.551 58.5356C120.551 58.8808 120.419 59.1769 120.155 59.4241C119.895 59.667 119.579 59.7884 119.209 59.7884Z" fill="#42516D"/>
<path d="M106.537 71.1915C105.553 71.1915 104.703 70.9869 103.987 70.5779C103.275 70.1645 102.727 69.5807 102.344 68.8264C101.96 68.0679 101.769 67.1752 101.769 66.1482C101.769 65.1382 101.96 64.2519 102.344 63.4891C102.732 62.722 103.273 62.1254 103.967 61.6993C104.662 61.2689 105.478 61.0537 106.416 61.0537C107.021 61.0537 107.592 61.1517 108.129 61.3477C108.67 61.5395 109.147 61.8378 109.56 62.2426C109.978 62.6475 110.306 63.1631 110.545 63.7895C110.783 64.4117 110.903 65.1531 110.903 66.0139V66.7235H102.855V65.1638H108.685C108.68 64.7206 108.585 64.3264 108.397 63.9813C108.21 63.6318 107.948 63.357 107.611 63.1567C107.278 62.9564 106.891 62.8563 106.448 62.8563C105.975 62.8563 105.559 62.9713 105.201 63.2014C104.843 63.4273 104.564 63.7256 104.364 64.0963C104.168 64.4628 104.068 64.8655 104.063 65.3044V66.6659C104.063 67.2369 104.168 67.727 104.377 68.1361C104.585 68.5409 104.877 68.852 105.252 69.0693C105.627 69.2824 106.066 69.3889 106.569 69.3889C106.906 69.3889 107.21 69.3421 107.483 69.2483C107.756 69.1503 107.992 69.0075 108.193 68.82C108.393 68.6325 108.544 68.4003 108.646 68.1233L110.807 68.3662C110.671 68.9372 110.411 69.4358 110.027 69.8619C109.648 70.2838 109.162 70.6119 108.57 70.8463C107.977 71.0764 107.3 71.1915 106.537 71.1915Z" fill="#42516D"/>
<path d="M93.1059 65.2472V71.0001H90.792V57.9092H93.0548V62.8502H93.1698C93.4 62.2963 93.7558 61.8595 94.2373 61.5399C94.7231 61.216 95.341 61.0541 96.091 61.0541C96.7728 61.0541 97.3673 61.1968 97.8744 61.4823C98.3815 61.7678 98.7735 62.1855 99.0505 62.7352C99.3318 63.2849 99.4724 63.9561 99.4724 64.7487V71.0001H97.1585V65.1066C97.1585 64.4461 96.988 63.9326 96.6471 63.5661C96.3105 63.1954 95.8374 63.01 95.2281 63.01C94.819 63.01 94.4525 63.0995 94.1286 63.2785C93.809 63.4532 93.5576 63.7068 93.3744 64.0392C93.1954 64.3715 93.1059 64.7742 93.1059 65.2472Z" fill="#42516D"/>
<path d="M88.2858 61.1814V62.9711H82.6416V61.1814H88.2858ZM84.0351 58.8291H86.349V68.0464C86.349 68.3575 86.3959 68.5961 86.4896 68.7623C86.5876 68.9243 86.7155 69.0351 86.8731 69.0947C87.0308 69.1544 87.2055 69.1842 87.3973 69.1842C87.5422 69.1842 87.6743 69.1736 87.7936 69.1523C87.9172 69.1309 88.0109 69.1118 88.0748 69.0947L88.4648 70.9037C88.3412 70.9463 88.1643 70.9932 87.9342 71.0443C87.7084 71.0954 87.4314 71.1253 87.1032 71.1338C86.5237 71.1508 86.0017 71.0635 85.5372 70.8717C85.0727 70.6757 84.7041 70.3731 84.4314 69.964C84.1629 69.555 84.0308 69.0436 84.0351 68.43V58.8291Z" fill="#42516D"/>
<path d="M70.0596 67.9191L70.0532 65.1258H70.4239L73.9523 61.1819H76.6562L72.316 66.0143H71.8366L70.0596 67.9191ZM67.9502 71.0001V57.9092H70.2641V71.0001H67.9502ZM74.1121 71.0001L70.9161 66.532L72.4758 64.9021L76.8799 71.0001H74.1121Z" fill="#42516D"/>
<path d="M61.4838 71.1915C60.5037 71.1915 59.6621 70.9763 58.959 70.5459C58.2601 70.1155 57.7211 69.521 57.3418 68.7625C56.9668 67.9997 56.7793 67.1219 56.7793 66.129C56.7793 65.1318 56.9711 64.2519 57.3546 63.4891C57.7381 62.722 58.2793 62.1254 58.9782 61.6993C59.6813 61.2689 60.5123 61.0537 61.4711 61.0537C62.2679 61.0537 62.9732 61.2007 63.5868 61.4948C64.2047 61.7845 64.6969 62.1958 65.0634 62.7284C65.4299 63.2568 65.6387 63.8747 65.6898 64.5821H63.4782C63.3887 64.1091 63.1756 63.7149 62.839 63.3996C62.5066 63.08 62.0613 62.9202 61.503 62.9202C61.03 62.9202 60.6145 63.048 60.2566 63.3037C59.8986 63.5551 59.6195 63.9173 59.4192 64.3904C59.2232 64.8634 59.1252 65.4301 59.1252 66.0906C59.1252 66.7597 59.2232 67.335 59.4192 67.8165C59.6152 68.2938 59.8901 68.6624 60.2438 68.9223C60.6017 69.178 61.0215 69.3058 61.503 69.3058C61.8439 69.3058 62.1486 69.2419 62.4171 69.1141C62.6898 68.982 62.9178 68.7923 63.101 68.5452C63.2843 68.298 63.41 67.9976 63.4782 67.6439H65.6898C65.6344 68.3385 65.4299 68.9543 65.0762 69.4912C64.7225 70.0239 64.2409 70.4415 63.6316 70.7441C63.0222 71.0423 62.3063 71.1915 61.4838 71.1915Z" fill="#42516D"/>
<path d="M49.3304 71.1979C48.7083 71.1979 48.1479 71.0871 47.6493 70.8655C47.155 70.6396 46.763 70.3073 46.4732 69.8683C46.1877 69.4294 46.0449 68.8882 46.0449 68.2448C46.0449 67.6908 46.1472 67.2327 46.3517 66.8705C46.5563 66.5083 46.8354 66.2185 47.1891 66.0012C47.5428 65.7838 47.9412 65.6198 48.3844 65.509C48.8319 65.3939 49.2942 65.3108 49.7715 65.2597C50.3468 65.2 50.8134 65.1468 51.1713 65.0999C51.5293 65.0487 51.7892 64.972 51.9512 64.8698C52.1174 64.7632 52.2005 64.5992 52.2005 64.3776V64.3392C52.2005 63.8577 52.0577 63.4848 51.7722 63.2206C51.4867 62.9564 51.0755 62.8243 50.5385 62.8243C49.9718 62.8243 49.5222 62.9479 49.1898 63.195C48.8617 63.4422 48.6401 63.7341 48.525 64.0708L46.3645 63.7639C46.535 63.1673 46.8162 62.6688 47.2083 62.2682C47.6003 61.8634 48.0797 61.5608 48.6465 61.3605C49.2132 61.156 49.8397 61.0537 50.5257 61.0537C50.9988 61.0537 51.4696 61.1091 51.9384 61.2199C52.4071 61.3307 52.8354 61.5139 53.2232 61.7696C53.611 62.021 53.9221 62.3641 54.1564 62.7987C54.3951 63.2334 54.5144 63.7767 54.5144 64.4287V70.9997H52.2899V69.651H52.2132C52.0726 69.9237 51.8745 70.1794 51.6188 70.4181C51.3674 70.6524 51.0499 70.8421 50.6664 70.9869C50.2871 71.1276 49.8418 71.1979 49.3304 71.1979ZM49.9313 69.4976C50.3958 69.4976 50.7985 69.406 51.1394 69.2227C51.4803 69.0352 51.7424 68.7881 51.9256 68.4813C52.1131 68.1744 52.2069 67.8399 52.2069 67.4777V66.3208C52.1344 66.3804 52.0108 66.4358 51.8361 66.4869C51.6657 66.5381 51.4739 66.5828 51.2608 66.6212C51.0478 66.6595 50.8368 66.6936 50.628 66.7235C50.4192 66.7533 50.2381 66.7789 50.0847 66.8002C49.7395 66.847 49.4306 66.9237 49.1578 67.0303C48.8851 67.1368 48.6699 67.286 48.5122 67.4777C48.3546 67.6652 48.2757 67.9081 48.2757 68.2064C48.2757 68.6325 48.4313 68.9543 48.7424 69.1716C49.0534 69.3889 49.4498 69.4976 49.9313 69.4976Z" fill="#42516D"/>
<path d="M44.2101 61.1814V62.9711H38.5659V61.1814H44.2101ZM39.9594 58.8291H42.2733V68.0464C42.2733 68.3575 42.3202 68.5961 42.4139 68.7623C42.5119 68.9243 42.6398 69.0351 42.7975 69.0947C42.9551 69.1544 43.1298 69.1842 43.3216 69.1842C43.4665 69.1842 43.5986 69.1736 43.7179 69.1523C43.8415 69.1309 43.9352 69.1118 43.9992 69.0947L44.3891 70.9037C44.2655 70.9463 44.0886 70.9932 43.8585 71.0443C43.6327 71.0954 43.3557 71.1253 43.0276 71.1338C42.448 71.1508 41.926 71.0635 41.4615 70.8717C40.997 70.6757 40.6284 70.3731 40.3557 69.964C40.0872 69.555 39.9551 69.0436 39.9594 68.43V58.8291Z" fill="#42516D"/>
<path d="M34.4746 61.5082C34.4149 60.9499 34.1635 60.5153 33.7203 60.2042C33.2814 59.8931 32.7104 59.7376 32.0072 59.7376C31.5129 59.7376 31.0889 59.8121 30.7352 59.9613C30.3815 60.1104 30.1109 60.3129 29.9234 60.5685C29.7359 60.8242 29.64 61.1161 29.6358 61.4442C29.6358 61.717 29.6976 61.9535 29.8212 62.1538C29.949 62.354 30.1216 62.5245 30.3389 62.6651C30.5562 62.8015 30.797 62.9165 31.0612 63.0103C31.3254 63.104 31.5918 63.1829 31.8602 63.2468L33.0875 63.5536C33.5818 63.6687 34.057 63.8242 34.5129 64.0202C34.9731 64.2163 35.3844 64.4634 35.7466 64.7617C36.1131 65.06 36.4028 65.4201 36.6159 65.842C36.829 66.2638 36.9355 66.7582 36.9355 67.3249C36.9355 68.092 36.7395 68.7674 36.3474 69.3512C35.9554 69.9308 35.3886 70.3846 34.6471 70.7127C33.9099 71.0366 33.0172 71.1985 31.9689 71.1985C30.9504 71.1985 30.0662 71.0408 29.3162 70.7255C28.5704 70.4102 27.9866 69.9499 27.5648 69.3448C27.1472 68.7397 26.9213 68.0025 26.8872 67.1332H29.2203C29.2544 67.5891 29.395 67.9684 29.6422 68.271C29.8893 68.5735 30.2111 68.7994 30.6074 68.9485C31.0079 69.0977 31.4554 69.1722 31.9497 69.1722C32.4653 69.1722 32.917 69.0955 33.3048 68.9421C33.6969 68.7844 34.0037 68.5671 34.2253 68.2901C34.4469 68.0089 34.5598 67.6808 34.5641 67.3058C34.5598 66.9648 34.4597 66.6836 34.2636 66.462C34.0676 66.2362 33.7927 66.0487 33.4391 65.8995C33.0896 65.7461 32.6805 65.6097 32.2118 65.4904L30.7224 65.1069C29.6443 64.8299 28.792 64.4102 28.1656 63.8477C27.5435 63.2809 27.2324 62.5288 27.2324 61.5913C27.2324 60.82 27.4412 60.1445 27.8588 59.565C28.2807 58.9854 28.8538 58.5359 29.5783 58.2163C30.3027 57.8924 31.123 57.7305 32.0392 57.7305C32.9682 57.7305 33.7821 57.8924 34.481 58.2163C35.1841 58.5359 35.7359 58.9812 36.1365 59.5522C36.5371 60.119 36.7437 60.771 36.7565 61.5082H34.4746Z" fill="#42516D"/>
</svg>
